<svg xmlns="http://www.w3.org/2000/svg" viewBox="0 0 1455 350" width="1455" height="350">
	<style>
		tspan { white-space:pre }
		.shp0 { fill: #000000 } 
	</style>
	<path id="Path 0" fill-rule="evenodd" class="shp0" d="M1132.28 1.03C1132.95 1.05 1136.42 3.44 1140 6.35C1143.58 9.25 1149.54 13.96 1153.25 16.81C1156.96 19.66 1160.01 22.11 1160.02 22.25C1160.02 22.39 1158.21 26.77 1155.98 32C1153.75 37.23 1150.08 45.1 1147.83 49.5C1145.58 53.9 1142.73 59.3 1141.49 61.5C1140.26 63.7 1131.91 78.78 1122.95 95C1113.98 111.22 1101.38 133.28 1094.94 144C1088.51 154.72 1079.98 170.03 1076 178C1072.02 185.97 1067.93 195.2 1066.91 198.5C1065.89 201.8 1063.95 209.45 1062.58 215.5C1061.22 221.55 1058.73 234.15 1057.07 243.5C1055.4 252.85 1053.35 265.45 1052.5 271.5C1051.65 277.55 1050.63 288.74 1050.23 296.37C1049.52 309.92 1049.44 310.27 1047 311.32C1045.34 312.03 1027.52 312.41 993.83 312.45C965.97 312.48 942.79 312.12 942.33 311.66C941.88 311.2 941.38 306.7 941.23 301.66C941.09 296.62 940.52 283.95 939.96 273.5C939.41 263.05 938.53 252.03 937.99 249C937.46 245.97 936.39 240.57 935.63 237C934.87 233.43 933.04 224.65 931.57 217.5C930.1 210.35 928.19 202.25 927.33 199.5C926.46 196.75 922.79 188.88 919.17 182C915.55 175.13 911.33 167.25 909.8 164.5C908.28 161.75 906.71 158.82 906.32 158C905.93 157.18 901.32 148.62 896.06 138.98C890.8 129.34 882.71 115.84 878.08 108.98C873.45 102.12 865.53 90.42 860.47 83C855.42 75.58 849.21 66.58 846.68 63C844.15 59.42 839.05 52 835.35 46.5C831.64 41 828.26 36.05 827.84 35.5C827.41 34.93 832.97 28.58 854.5 6.94L862.5 18.51C866.9 24.87 873.84 34.67 877.92 40.29C882 45.9 891.91 60.4 899.94 72.5C907.97 84.6 915.66 96.06 917.02 97.96C918.38 99.86 923.05 105.94 927.4 111.46C931.74 116.98 937.37 123.93 939.9 126.89C942.43 129.86 949 136.19 954.5 140.95C961.67 147.17 966.2 150.26 970.5 151.9C973.8 153.16 979.65 154.86 983.5 155.69C988.42 156.75 994.07 157.07 1002.5 156.76C1014.15 156.32 1014.71 156.2 1021.85 152.41C1025.89 150.26 1031.71 146.47 1034.79 144C1037.86 141.53 1044.68 134.76 1049.94 128.97C1056.62 121.62 1065.36 109.73 1078.98 89.47C1089.69 73.54 1100.98 55.78 1104.08 50C1107.17 44.22 1113.41 32.75 1117.95 24.5C1122.48 16.25 1127.28 7.59 1128.63 5.25C1129.97 2.91 1131.62 1.02 1132.28 1.03ZM996.5 47.11C999.25 47.08 1003.52 47.52 1006 48.1C1008.48 48.68 1012.95 50.35 1015.95 51.83C1018.95 53.3 1023.71 56.75 1026.52 59.5C1029.33 62.25 1032.85 66.97 1034.34 70C1035.84 73.03 1037.57 78.65 1038.21 82.5C1039.08 87.82 1039.08 91.06 1038.19 96C1037.54 99.58 1035.8 104.97 1034.32 108C1032.84 111.03 1029.35 115.76 1026.56 118.52C1023.78 121.28 1019.02 124.77 1016 126.27C1012.98 127.78 1007.58 129.54 1004 130.2C998.91 131.13 995.98 131.11 990.5 130.14C986.58 129.44 980.89 127.48 977.57 125.69C974.3 123.94 969.65 120.47 967.21 118C964.78 115.53 961.5 110.8 959.92 107.5C958.35 104.2 956.62 98.8 956.08 95.5C955.45 91.62 955.45 87.21 956.08 83C956.62 79.42 958.35 73.8 959.92 70.5C961.5 67.2 964.79 62.48 967.23 60C969.67 57.52 974.1 54.18 977.08 52.57C980.06 50.96 984.52 49.08 987 48.41C989.48 47.73 993.75 47.15 996.5 47.11ZM1280 103.37C1284.67 103.58 1290.08 104.4 1292 105.2C1293.92 106 1297.21 108.2 1299.3 110.08C1301.6 112.16 1303.67 115.27 1304.56 118C1305.36 120.47 1306.02 123.85 1306.02 125.5C1306.02 127.15 1305.23 130.72 1304.26 133.44C1303.13 136.61 1301.04 139.64 1298.42 141.94C1296.18 143.9 1291.9 146.3 1288.92 147.27C1285.67 148.33 1280.5 149.04 1276 149.03C1271.88 149.02 1266.14 148.34 1263.25 147.51C1260.36 146.68 1256.57 144.76 1254.83 143.25C1253.08 141.74 1250.84 138.7 1249.85 136.5C1248.86 134.3 1248.03 130.14 1248.02 127.25C1248.01 124.36 1248.7 120.31 1249.56 118.25C1250.41 116.19 1252.1 113.45 1253.31 112.17C1254.51 110.89 1257.08 108.88 1259 107.7C1260.92 106.52 1264.53 104.98 1267 104.28C1269.65 103.53 1274.99 103.16 1280 103.37ZM204.4 109.43C208.31 109.8 219.38 110.96 229 112C238.63 113.04 251.9 114.4 258.5 115.03C265.1 115.65 271.1 116.47 271.84 116.83C272.87 117.35 273.04 119.48 272 135L267 135C262.61 135 261.95 135.28 261.56 137.25C261.31 138.49 259.95 150.75 258.54 164.5C257.12 178.25 255.97 190.51 255.98 191.75C255.99 192.99 265.68 213.57 277.5 237.5C289.32 261.43 299.34 281.01 299.75 281.02C300.16 281.04 300.79 279.8 301.13 278.27C301.48 276.75 308.01 240.06 329.5 117.99L354.75 117.99C368.64 118 380 118.34 380 118.75C380 119.16 377.08 135.59 373.5 155.25C369.93 174.91 367 191.45 367 192C367 192.55 367.45 193 368 193C368.55 193 369.96 191.09 371.13 188.75C372.29 186.41 374.71 182.47 376.49 180C378.26 177.53 382.14 173.88 385.11 171.89C388.07 169.91 392.98 167.49 396 166.51C399.38 165.42 404.58 164.74 409.5 164.74C414.42 164.74 419.62 165.42 423 166.51C426.02 167.49 430.95 169.91 433.95 171.89C437.05 173.95 441.28 178.08 443.76 181.5C446.4 185.13 449.16 190.66 450.74 195.5C453.07 202.61 453.36 205.11 453.39 218C453.41 229.09 452.88 235.21 451.15 244C449.91 250.32 447.97 258.65 446.84 262.5C445.72 266.35 443.34 272.65 441.55 276.5C439.76 280.35 436.25 286.2 433.74 289.5C431.23 292.8 427 297.13 424.34 299.13C421.68 301.13 417.59 303.72 415.25 304.88C412.91 306.05 408.19 307.67 404.75 308.49C401.31 309.3 395.8 309.97 392.5 309.97C389.2 309.97 383.69 309.3 380.25 308.49C376.81 307.67 372.2 306.1 370 305C367.8 303.9 364.07 301.09 361.71 298.75C359.34 296.4 356.32 291.92 354.96 288.73C353.61 285.56 352.16 282.97 351.75 282.98C351.34 282.99 350.59 285.14 350.09 287.75C349.58 290.36 348.57 295.99 346.5 308.02L329.75 308.01C320.54 308 312.99 308.11 312.98 308.25C312.96 308.39 314.59 312.1 316.59 316.5C318.58 320.9 320.46 326.52 320.76 329C321.17 332.37 320.77 334.63 319.17 338C317.99 340.48 315.56 343.52 313.76 344.78C311.64 346.26 308.41 347.25 304.5 347.61C300.81 347.96 287.51 346.99 270 345.11C254.32 343.43 217.88 339.57 189 336.54C160.13 333.5 132.68 330.53 128 329.92C123.33 329.32 117.92 328.01 116 327.01C114.08 326.01 111.52 324.14 110.32 322.85C109.12 321.56 107.65 319.26 107.07 317.75C106.48 316.24 106 313.43 106 308L53.5 308C12.16 308 1 307.73 1.01 306.75C1.01 306.06 7.78 267.02 16.04 220C24.3 172.97 31.28 133.04 32 128L84 128L83.94 130.25C83.91 131.49 78.6 162.2 60.39 264.5L127 265L126.5 271.5C126.22 275.07 126.22 278 126.5 278C126.78 278 128.06 276.76 129.37 275.25C130.67 273.74 135.08 268.23 139.17 263C143.26 257.77 158.02 239.1 171.96 221.5C185.9 203.9 197.66 189.05 198.09 188.5C198.52 187.95 199.56 181.43 200.4 174C201.25 166.57 202.65 153.53 203.52 145C204.4 136.47 204.75 129.19 204.3 128.82C203.86 128.44 201.7 127.99 195.5 127.5L195.75 120.5C195.89 116.65 196.29 112.43 196.65 111.13C197.29 108.82 197.52 108.77 204.4 109.43ZM220.7 163.5L217.46 194.5C179.92 241.78 169.02 256.06 169.01 256.75C169 257.7 173.31 258 187.25 258C197.29 258 219.11 258.34 235.75 258.75C255.75 259.25 266.01 259.16 266.03 258.5C266.05 257.95 259.36 243.78 251.16 227L236.27 196.5C239.11 170.15 240.61 155.97 241.43 148C242.26 140.03 242.61 133.2 242.22 132.84C241.82 132.48 237.62 131.86 232.88 131.47C228.14 131.08 224.19 131.15 224.1 131.63C224.01 132.11 222.48 146.45 220.7 163.5ZM371.48 208.25C369.5 209.82 366.71 213.69 365.01 217.25C362.98 221.47 361.32 227.56 359.89 236C358.19 246 357.96 249.6 358.75 254C359.29 257.02 360.8 261.19 362.12 263.26C363.57 265.56 366.25 267.85 369 269.16C372.5 270.83 374.5 271.16 378 270.65C380.48 270.29 384.3 268.74 386.5 267.2C389.21 265.32 391.55 262.33 393.75 257.96C395.54 254.41 397.7 248.13 398.55 244C399.41 239.88 400.36 232.9 400.67 228.5C400.99 224.01 400.77 218.74 400.17 216.5C399.59 214.3 398.18 211.26 397.05 209.75C395.92 208.24 393.76 206.37 392.25 205.6C390.74 204.83 387.93 203.95 386 203.64C384.07 203.34 380.8 203.63 378.73 204.3C376.65 204.96 373.39 206.74 371.48 208.25ZM783.34 118L808.67 118C822.6 118 834 118.34 833.99 118.75C833.99 119.16 831.34 134.35 828.1 152.5C824.86 170.65 822.57 185.95 823 186.5C823.47 187.09 825.01 185.65 826.76 183C828.4 180.53 831.59 176.81 833.87 174.75C836.14 172.69 840.14 169.93 842.75 168.62C845.36 167.31 849.98 165.68 853 165C856.23 164.27 862 163.96 867 164.24C872.56 164.55 877.58 165.53 881.5 167.06C884.8 168.35 889.3 170.8 891.5 172.5C893.7 174.21 897.08 177.84 899 180.58C900.92 183.31 903.37 188.24 904.44 191.53C905.87 195.93 906.36 200.13 906.29 207.5C906.23 213.78 905.02 224.38 903.03 236C901.29 246.18 897.75 266.43 890.49 307.5L865.24 307.75C845.59 307.94 840 307.72 839.99 306.75C839.98 306.06 842.98 288.4 846.65 267.5C851.1 242.13 853.35 226.67 853.41 221C853.48 214.16 853.11 211.86 851.5 209.21C850.4 207.4 847.7 205.05 845.5 203.98C843.3 202.9 839.92 202.03 838 202.04C836.08 202.04 832.7 202.88 830.5 203.9C828.3 204.91 825.29 207.04 823.81 208.62C822.33 210.21 819.98 213.97 818.59 217C816.73 221.07 814.36 232.28 809.51 260C805.9 280.63 802.51 299.86 801 308L775.5 308C751.72 308 750.03 307.88 750.42 306.25C750.65 305.29 758.15 262.54 767.09 211.25M657.9 127.28C693.39 127.68 701.59 128.04 707 129.44C710.58 130.36 716.31 132.44 719.75 134.06C723.41 135.78 728.73 139.59 732.6 143.25C737.25 147.66 740.21 151.57 742.63 156.5C744.67 160.65 746.69 166.96 747.61 172C748.63 177.66 748.96 183.34 748.58 189C748.26 193.68 747.08 201.1 745.95 205.5C744.83 209.9 742.01 217.08 739.7 221.46C737.07 226.44 733.07 231.89 729 236.05C725.42 239.69 719.35 244.52 715.5 246.77C711.65 249.02 705.58 251.85 702 253.05C698.42 254.25 691.45 255.86 686.5 256.61C681.55 257.37 669.85 257.99 643.5 258L640.15 277.25C638.31 287.84 636.39 299.09 635 308L609 308C588.86 308 583 307.72 583.01 306.75C583.02 306.06 590.03 265.68 598.6 217C607.16 168.32 614.43 128.12 614.74 127.65C615.05 127.18 634.48 127.01 657.9 127.28ZM656 189C653.81 201.38 651.79 212.74 651.51 214.25L651 217C674.49 216.48 677.13 216.1 680.5 214.31C682.7 213.13 686.03 210.67 687.9 208.84C689.78 207 692.12 203.7 693.11 201.5C694.11 199.3 695.4 195.03 695.98 192C696.75 188.02 696.73 184.98 695.9 181C695.01 176.7 693.85 174.59 690.63 171.37C688.21 168.94 684.85 166.77 682.5 166.12C680.3 165.51 674.34 165.01 669.25 165.01C664.16 165 660 165.34 659.99 165.75C659.99 166.16 658.19 176.63 656 189ZM1150.5 163.5C1159.43 163.76 1166.01 164.54 1171.5 165.98C1175.9 167.14 1182.4 169.52 1185.94 171.29C1189.48 173.06 1194.59 176.53 1197.29 179C1200.13 181.6 1203.45 186.03 1205.15 189.5C1207.45 194.18 1208.14 197.04 1208.5 209.5L1166 210L1166 207.75C1165.99 206.51 1165.18 204.15 1164.19 202.5C1163.19 200.85 1160.83 198.74 1158.94 197.81C1157.05 196.88 1153.7 195.83 1151.5 195.46C1149.3 195.1 1145.7 195.28 1143.5 195.85C1141.3 196.42 1138.26 197.82 1136.75 198.95C1135.19 200.11 1133.78 202.3 1133.5 204C1133.22 205.65 1133.61 208.24 1134.36 209.75C1135.11 211.26 1137.47 213.36 1139.61 214.4C1141.75 215.45 1149.58 218.01 1157 220.09C1164.42 222.16 1172.97 224.99 1176 226.36C1179.03 227.73 1183.97 230.71 1187 232.98C1190.03 235.24 1193.98 239.21 1195.8 241.8C1197.61 244.38 1199.81 248.97 1200.68 252C1201.75 255.75 1202.12 260.05 1201.83 265.5C1201.49 271.91 1200.74 274.89 1198.1 280.5C1195.84 285.28 1193.01 289.19 1189.15 292.85C1185.68 296.13 1180.41 299.68 1175.5 302.03C1171.1 304.14 1164.8 306.55 1161.5 307.39C1158.2 308.23 1151.22 309.43 1146 310.07C1140.62 310.72 1132.81 310.94 1128 310.56C1123.33 310.2 1115.67 309 1111 307.9C1106.33 306.8 1099.8 304.61 1096.5 303.04C1093.2 301.47 1088.07 298.01 1085.09 295.34C1082.12 292.68 1078.69 288.93 1077.47 287C1076.25 285.07 1074.52 281.02 1073.62 278C1072.72 274.98 1071.98 269.91 1072 261L1116 261L1116.6 264.75C1116.93 266.81 1117.83 269.74 1118.6 271.25C1119.44 272.9 1121.9 274.86 1124.75 276.15C1128.62 277.89 1130.89 278.22 1137 277.9C1142.7 277.59 1145.28 276.96 1147.75 275.25C1149.54 274.01 1151.29 271.76 1151.64 270.25C1151.99 268.74 1151.88 266.4 1151.39 265.06C1150.9 263.71 1148.92 261.7 1147 260.59C1145.08 259.48 1137.2 256.48 1129.5 253.94C1121.8 251.39 1112.58 247.82 1109 246C1105.42 244.18 1100.11 240.4 1097.18 237.59C1094.25 234.79 1090.65 230.03 1089.18 227C1086.75 222 1086.5 220.44 1086.5 209.95C1086.5 198.69 1086.59 198.21 1090.14 190.95C1092.66 185.79 1095.44 182 1099.14 178.63C1102.09 175.95 1106.97 172.51 1110 170.99C1113.03 169.46 1118.2 167.43 1121.5 166.46C1124.8 165.5 1129.75 164.36 1132.5 163.91C1135.25 163.47 1143.35 163.28 1150.5 163.5ZM1388 163.47C1396.53 163.73 1403.04 164.52 1408.5 165.97C1412.9 167.14 1419.64 169.76 1423.48 171.8C1427.32 173.83 1433.17 178.04 1436.48 181.15C1439.79 184.26 1444.07 189.43 1446 192.65C1447.92 195.87 1450.53 202.1 1451.8 206.5C1453.7 213.08 1454.1 216.81 1454.06 227.5C1454.03 237.62 1453.47 242.94 1451.53 251.5C1449.85 258.91 1447.51 265.6 1444.35 272C1440.52 279.76 1438.18 282.97 1431.58 289.52C1426.17 294.89 1421.18 298.75 1416.5 301.18C1412.65 303.18 1406.8 305.7 1403.5 306.78C1400.2 307.86 1393.22 309.31 1388 309.99C1382.13 310.76 1375.25 310.96 1370 310.53C1365.33 310.14 1358.13 308.96 1354 307.91C1349.88 306.86 1343.13 304.34 1339 302.31C1333.65 299.68 1329.49 296.6 1324.5 291.56C1320.65 287.68 1316.28 282.25 1314.8 279.5C1313.31 276.75 1311.17 270.9 1310.03 266.5C1308.57 260.79 1307.98 255.34 1307.98 247.5C1307.98 241.45 1308.66 232.56 1309.49 227.75C1310.32 222.94 1312.11 215.51 1313.47 211.25C1314.84 206.99 1317.65 200.61 1319.72 197.08C1321.8 193.55 1326.42 187.75 1330 184.19C1333.58 180.63 1339.42 175.98 1343 173.86C1346.58 171.74 1352.99 168.88 1357.25 167.5C1361.51 166.13 1367.36 164.57 1370.25 164.05C1373.14 163.53 1381.13 163.27 1388 163.47ZM1375.26 203.32C1373.48 204.23 1371.15 206.21 1370.09 207.73C1369.03 209.26 1367.24 212.53 1366.12 215C1365 217.47 1363.17 224.79 1362.04 231.25C1360.92 237.71 1360.01 246.71 1360.01 251.25C1360.03 257.79 1360.49 260.41 1362.26 263.91C1363.49 266.33 1365.85 269.26 1367.5 270.41C1369.86 272.05 1372.02 272.5 1377.58 272.5C1383.74 272.5 1385.13 272.15 1388.33 269.75C1390.59 268.06 1393.17 264.6 1395.04 260.75C1397.03 256.66 1398.78 250.52 1400.09 243C1401.2 236.68 1402.15 227.68 1402.19 223C1402.24 218.32 1401.74 213.15 1401.08 211.5C1400.42 209.85 1398.44 207.04 1396.69 205.25C1394.93 203.46 1392.15 201.74 1390.5 201.42C1388.85 201.11 1386.83 200.71 1386 200.54C1385.17 200.37 1383.15 200.55 1381.5 200.95C1379.85 201.34 1377.04 202.41 1375.26 203.32ZM1245.03 166L1270.02 166C1291.56 166 1295 166.21 1295 167.5C1295 168.32 1289.61 199.26 1283.02 236.25C1276.43 273.24 1270.8 304.51 1270 308L1245 308C1225.66 308 1220 307.72 1220.01 306.75C1220.02 306.06 1225.42 275.13 1232 238C1238.59 200.88 1244.22 169.49 1244.51 168.25M565 211L564.99 213.25C564.99 214.49 563.42 224.5 561.49 235.5C559.57 246.5 558 255.61 558 255.75C558 255.89 539.33 256 516.5 256C480.28 256 475 255.81 475 254.5C475 253.68 476.59 244.11 478.53 233.25C480.47 222.39 482.26 212.94 482.5 212.25C482.85 211.28 492.06 211 565 211Z" />
</svg>