<svg xmlns="http://www.w3.org/2000/svg" viewBox="0 0 1575 459" width="1575" height="459">
	<style>
		tspan { white-space:pre }
		.shp0 { fill: #000000 } 
	</style>
	<path id="Path 0" fill-rule="evenodd" class="shp0" d="M1189.28 45.03C1189.95 45.05 1193.42 47.44 1197 50.35C1200.58 53.25 1206.54 57.96 1210.25 60.81C1213.96 63.66 1217.01 66.11 1217.02 66.25C1217.02 66.39 1215.21 70.78 1212.98 76C1210.75 81.22 1207.08 89.1 1204.83 93.5C1202.58 97.9 1199.73 103.3 1198.49 105.5C1197.26 107.7 1188.91 122.78 1179.95 139C1170.98 155.22 1158.38 177.28 1151.94 188C1145.51 198.72 1136.98 214.03 1133 222C1129.02 229.97 1124.93 239.2 1123.91 242.5C1122.89 245.8 1120.95 253.45 1119.58 259.5C1118.22 265.55 1115.73 278.15 1114.07 287.5C1112.4 296.85 1110.35 309.45 1109.5 315.5C1108.65 321.55 1107.63 332.74 1107.23 340.37C1106.52 353.92 1106.44 354.27 1104 355.32C1102.34 356.03 1084.52 356.41 1050.83 356.45C1022.97 356.48 999.79 356.12 999.33 355.66C998.88 355.2 998.38 350.7 998.23 345.66C998.09 340.62 997.52 327.95 996.96 317.5C996.41 307.05 995.53 296.02 994.99 293C994.46 289.98 993.39 284.57 992.63 281C991.87 277.43 990.04 268.65 988.57 261.5C987.1 254.35 985.19 246.25 984.33 243.5C983.46 240.75 979.79 232.88 976.17 226C972.55 219.13 968.33 211.25 966.8 208.5C965.28 205.75 963.71 202.82 963.32 202C962.93 201.18 958.32 192.62 953.06 182.98C947.8 173.34 939.71 159.84 935.08 152.98C930.45 146.12 922.53 134.43 917.47 127C912.42 119.58 906.21 110.58 903.68 107C901.15 103.42 896.05 96 892.35 90.5C888.64 85 885.26 80.05 884.84 79.5C884.41 78.93 889.97 72.58 911.5 50.94L919.5 62.51C923.9 68.87 930.84 78.67 934.92 84.29C939 89.9 948.91 104.4 956.94 116.5C964.97 128.6 972.66 140.06 974.02 141.96C975.38 143.86 980.05 149.94 984.4 155.46C988.74 160.98 994.37 167.93 996.9 170.89C999.43 173.86 1006 180.19 1011.5 184.95C1018.67 191.17 1023.2 194.26 1027.5 195.9C1030.8 197.16 1036.65 198.86 1040.5 199.69C1045.42 200.75 1051.07 201.07 1059.5 200.76C1071.15 200.32 1071.71 200.2 1078.85 196.41C1082.89 194.26 1088.71 190.47 1091.79 188C1094.86 185.53 1101.68 178.76 1106.94 172.97C1113.62 165.62 1122.36 153.73 1135.98 133.47C1146.69 117.54 1157.98 99.78 1161.08 94C1164.17 88.22 1170.41 76.75 1174.95 68.5C1179.48 60.25 1184.28 51.59 1185.63 49.25C1186.97 46.91 1188.62 45.02 1189.28 45.03ZM1053.5 91.11C1056.25 91.08 1060.53 91.52 1063 92.1C1065.47 92.68 1069.95 94.35 1072.95 95.83C1075.95 97.3 1080.71 100.75 1083.52 103.5C1086.33 106.25 1089.85 110.97 1091.34 114C1092.84 117.03 1094.57 122.65 1095.21 126.5C1096.08 131.82 1096.08 135.06 1095.19 140C1094.54 143.57 1092.8 148.97 1091.32 152C1089.84 155.03 1086.35 159.76 1083.56 162.52C1080.78 165.28 1076.03 168.77 1073 170.27C1069.97 171.78 1064.58 173.54 1061 174.2C1055.91 175.13 1052.98 175.11 1047.5 174.14C1043.58 173.44 1037.89 171.48 1034.57 169.69C1031.3 167.94 1026.65 164.47 1024.21 162C1021.78 159.53 1018.5 154.8 1016.92 151.5C1015.35 148.2 1013.62 142.8 1013.08 139.5C1012.45 135.62 1012.45 131.21 1013.08 127C1013.62 123.42 1015.35 117.8 1016.92 114.5C1018.5 111.2 1021.79 106.47 1024.23 104C1026.67 101.53 1031.1 98.18 1034.08 96.57C1037.06 94.96 1041.53 93.08 1044 92.41C1046.47 91.73 1050.75 91.15 1053.5 91.11ZM1337 147.37C1341.67 147.58 1347.08 148.4 1349 149.2C1350.92 150 1354.21 152.2 1356.3 154.08C1358.6 156.16 1360.67 159.27 1361.56 162C1362.36 164.47 1363.02 167.85 1363.02 169.5C1363.02 171.15 1362.23 174.72 1361.26 177.44C1360.13 180.61 1358.04 183.64 1355.42 185.94C1353.18 187.9 1348.9 190.3 1345.92 191.27C1342.67 192.33 1337.5 193.04 1333 193.03C1328.88 193.02 1323.14 192.34 1320.25 191.51C1317.36 190.68 1313.57 188.76 1311.83 187.25C1310.08 185.74 1307.84 182.7 1306.85 180.5C1305.86 178.3 1305.03 174.14 1305.02 171.25C1305.01 168.36 1305.7 164.31 1306.56 162.25C1307.41 160.19 1309.1 157.45 1310.31 156.17C1311.51 154.89 1314.08 152.88 1316 151.7C1317.92 150.52 1321.53 148.98 1324 148.28C1326.65 147.53 1331.99 147.16 1337 147.37ZM261.4 153.43C265.31 153.8 276.38 154.96 286 156C295.63 157.04 308.9 158.4 315.5 159.03C322.1 159.65 328.1 160.47 328.84 160.83C329.87 161.35 330.04 163.48 329 179L324 179C319.61 179 318.95 179.28 318.56 181.25C318.31 182.49 316.95 194.75 315.54 208.5C314.12 222.25 312.97 234.51 312.98 235.75C312.99 236.99 322.68 257.57 334.5 281.5C346.32 305.43 356.34 325.01 356.75 325.02C357.16 325.04 357.79 323.8 358.13 322.27C358.48 320.75 365.01 284.06 386.5 161.99L411.75 161.99C425.64 162 437 162.34 437 162.75C437 163.16 434.08 179.59 430.5 199.25C426.93 218.91 424 235.45 424 236C424 236.55 424.45 237 425 237C425.55 237 426.96 235.09 428.13 232.75C429.29 230.41 431.71 226.47 433.49 224C435.26 221.53 439.14 217.88 442.11 215.89C445.07 213.91 449.98 211.49 453 210.51C456.38 209.42 461.58 208.74 466.5 208.74C471.42 208.74 476.62 209.42 480 210.51C483.02 211.49 487.95 213.91 490.95 215.89C494.05 217.95 498.28 222.08 500.76 225.5C503.4 229.13 506.16 234.66 507.74 239.5C510.07 246.61 510.36 249.11 510.39 262C510.41 273.09 509.88 279.21 508.15 288C506.91 294.32 504.97 302.65 503.84 306.5C502.72 310.35 500.34 316.65 498.55 320.5C496.76 324.35 493.25 330.2 490.74 333.5C488.23 336.8 484 341.13 481.34 343.13C478.68 345.13 474.59 347.72 472.25 348.88C469.91 350.05 465.19 351.67 461.75 352.49C458.31 353.3 452.8 353.97 449.5 353.97C446.2 353.97 440.69 353.3 437.25 352.49C433.81 351.67 429.2 350.1 427 349C424.8 347.9 421.07 345.09 418.71 342.75C416.34 340.4 413.32 335.92 411.96 332.73C410.61 329.56 409.16 326.97 408.75 326.98C408.34 326.99 407.59 329.14 407.09 331.75C406.58 334.36 405.57 339.99 403.5 352.02L386.75 352.01C377.54 352 369.99 352.11 369.98 352.25C369.96 352.39 371.59 356.1 373.59 360.5C375.58 364.9 377.46 370.52 377.76 373C378.17 376.37 377.77 378.63 376.17 382C374.99 384.48 372.56 387.52 370.76 388.78C368.64 390.26 365.41 391.25 361.5 391.61C357.81 391.96 344.51 390.99 327 389.11C311.32 387.43 274.88 383.57 246 380.54C217.13 377.5 189.68 374.53 185 373.92C180.32 373.32 174.93 372.01 173 371.01C171.07 370.01 168.52 368.14 167.32 366.85C166.12 365.56 164.65 363.26 164.07 361.75C163.48 360.24 163 357.43 163 352L110.5 352C69.16 352 58 351.73 58.01 350.75C58.01 350.06 64.78 311.02 73.04 264C81.3 216.97 88.28 177.04 89 172L141 172L140.94 174.25C140.91 175.49 135.6 206.2 117.39 308.5L184 309L183.5 315.5C183.22 319.07 183.22 322 183.5 322C183.78 322 185.06 320.76 186.37 319.25C187.67 317.74 192.08 312.23 196.17 307C200.26 301.77 215.02 283.1 228.96 265.5C242.9 247.9 254.66 233.05 255.09 232.5C255.52 231.95 256.56 225.43 257.4 218C258.25 210.57 259.65 197.53 260.52 189C261.4 180.47 261.75 173.19 261.3 172.82C260.86 172.44 258.7 171.99 252.5 171.5L252.75 164.5C252.89 160.65 253.29 156.43 253.65 155.13C254.29 152.82 254.52 152.77 261.4 153.43ZM277.7 207.5L274.46 238.5C236.92 285.77 226.02 300.06 226.01 300.75C226 301.7 230.31 302 244.25 302C254.29 302 276.11 302.34 292.75 302.75C312.75 303.25 323.01 303.16 323.03 302.5C323.05 301.95 316.36 287.77 308.16 271L293.27 240.5C296.11 214.15 297.61 199.97 298.43 192C299.26 184.03 299.61 177.2 299.22 176.84C298.82 176.48 294.62 175.86 289.88 175.47C285.14 175.08 281.19 175.15 281.1 175.63C281.01 176.11 279.48 190.45 277.7 207.5ZM428.48 252.25C426.5 253.82 423.71 257.69 422.01 261.25C419.98 265.47 418.32 271.56 416.89 280C415.19 290 414.96 293.6 415.75 298C416.29 301.02 417.8 305.19 419.12 307.26C420.57 309.56 423.25 311.85 426 313.16C429.5 314.83 431.5 315.16 435 314.65C437.48 314.29 441.3 312.74 443.5 311.2C446.21 309.32 448.55 306.33 450.75 301.96C452.54 298.41 454.7 292.13 455.55 288C456.41 283.88 457.36 276.9 457.67 272.5C457.99 268.01 457.77 262.74 457.17 260.5C456.59 258.3 455.18 255.26 454.05 253.75C452.92 252.24 450.76 250.37 449.25 249.6C447.74 248.83 444.93 247.95 443 247.64C441.07 247.34 437.8 247.63 435.73 248.3C433.65 248.96 430.39 250.74 428.48 252.25ZM840.34 162L865.67 162C879.6 162 891 162.34 890.99 162.75C890.99 163.16 888.34 178.35 885.1 196.5C881.86 214.65 879.57 229.95 880 230.5C880.47 231.09 882.01 229.65 883.76 227C885.4 224.53 888.59 220.81 890.87 218.75C893.14 216.69 897.14 213.93 899.75 212.62C902.36 211.31 906.98 209.68 910 209C913.23 208.27 919 207.96 924 208.24C929.56 208.55 934.58 209.53 938.5 211.06C941.8 212.35 946.3 214.8 948.5 216.5C950.7 218.21 954.08 221.84 956 224.58C957.92 227.31 960.37 232.24 961.44 235.53C962.87 239.93 963.36 244.13 963.29 251.5C963.23 257.78 962.02 268.38 960.03 280C958.29 290.18 954.75 310.43 947.49 351.5L922.24 351.75C902.59 351.94 897 351.72 896.99 350.75C896.98 350.06 899.98 332.4 903.65 311.5C908.1 286.13 910.35 270.67 910.41 265C910.48 258.16 910.11 255.86 908.5 253.21C907.4 251.4 904.7 249.05 902.5 247.98C900.3 246.9 896.92 246.03 895 246.04C893.08 246.04 889.7 246.88 887.5 247.9C885.3 248.91 882.29 251.04 880.81 252.62C879.33 254.21 876.98 257.98 875.59 261C873.73 265.07 871.36 276.28 866.51 304C862.9 324.63 859.51 343.86 858 352L832.5 352C808.72 352 807.03 351.88 807.42 350.25C807.65 349.29 815.15 306.54 824.09 255.25M714.9 171.28C750.39 171.68 758.59 172.04 764 173.44C767.58 174.36 773.31 176.44 776.75 178.06C780.41 179.78 785.73 183.59 789.6 187.25C794.25 191.66 797.21 195.57 799.63 200.5C801.67 204.65 803.69 210.96 804.61 216C805.63 221.66 805.96 227.34 805.58 233C805.26 237.68 804.08 245.1 802.95 249.5C801.83 253.9 799.01 261.08 796.7 265.46C794.07 270.44 790.07 275.89 786 280.05C782.42 283.69 776.35 288.52 772.5 290.77C768.65 293.02 762.58 295.85 759 297.05C755.42 298.25 748.45 299.86 743.5 300.61C738.55 301.37 726.85 301.99 700.5 302L697.15 321.25C695.31 331.84 693.39 343.09 692 352L666 352C645.86 352 640 351.72 640.01 350.75C640.02 350.06 647.03 309.68 655.6 261C664.16 212.32 671.43 172.12 671.74 171.65C672.05 171.18 691.48 171.01 714.9 171.28ZM713 233C710.81 245.38 708.79 256.74 708.51 258.25L708 261C731.49 260.48 734.13 260.1 737.5 258.31C739.7 257.13 743.03 254.67 744.9 252.84C746.78 251 749.12 247.7 750.11 245.5C751.11 243.3 752.4 239.03 752.98 236C753.75 232.02 753.73 228.98 752.9 225C752.01 220.7 750.85 218.59 747.63 215.37C745.21 212.94 741.85 210.77 739.5 210.12C737.3 209.51 731.34 209.01 726.25 209.01C721.16 209 717 209.34 716.99 209.75C716.99 210.16 715.19 220.63 713 233ZM1207.5 207.5C1216.43 207.76 1223.01 208.54 1228.5 209.98C1232.9 211.14 1239.4 213.52 1242.94 215.29C1246.48 217.06 1251.59 220.53 1254.29 223C1257.13 225.6 1260.45 230.03 1262.15 233.5C1264.45 238.18 1265.14 241.04 1265.5 253.5L1223 254L1223 251.75C1222.99 250.51 1222.18 248.15 1221.19 246.5C1220.19 244.85 1217.83 242.74 1215.94 241.81C1214.05 240.88 1210.7 239.83 1208.5 239.46C1206.3 239.1 1202.7 239.28 1200.5 239.85C1198.3 240.42 1195.26 241.82 1193.75 242.95C1192.19 244.11 1190.78 246.3 1190.5 248C1190.22 249.65 1190.61 252.24 1191.36 253.75C1192.11 255.26 1194.47 257.36 1196.61 258.4C1198.75 259.45 1206.58 262.01 1214 264.09C1221.42 266.16 1229.97 268.99 1233 270.36C1236.03 271.73 1240.97 274.71 1244 276.98C1247.03 279.24 1250.98 283.21 1252.8 285.8C1254.61 288.38 1256.81 292.98 1257.68 296C1258.75 299.75 1259.12 304.05 1258.83 309.5C1258.49 315.91 1257.74 318.89 1255.1 324.5C1252.84 329.28 1250.01 333.19 1246.15 336.85C1242.68 340.13 1237.41 343.68 1232.5 346.03C1228.1 348.14 1221.8 350.55 1218.5 351.39C1215.2 352.23 1208.22 353.43 1203 354.07C1197.62 354.72 1189.81 354.94 1185 354.56C1180.33 354.2 1172.67 353 1168 351.9C1163.33 350.8 1156.8 348.61 1153.5 347.04C1150.2 345.47 1145.07 342.01 1142.09 339.34C1139.12 336.68 1135.69 332.93 1134.47 331C1133.25 329.07 1131.52 325.02 1130.62 322C1129.72 318.98 1128.98 313.91 1129 305L1173 305L1173.6 308.75C1173.93 310.81 1174.83 313.74 1175.6 315.25C1176.44 316.9 1178.9 318.86 1181.75 320.15C1185.62 321.89 1187.89 322.22 1194 321.9C1199.7 321.59 1202.28 320.96 1204.75 319.25C1206.54 318.01 1208.29 315.76 1208.64 314.25C1208.99 312.74 1208.88 310.4 1208.39 309.06C1207.9 307.71 1205.92 305.7 1204 304.59C1202.08 303.48 1194.2 300.48 1186.5 297.94C1178.8 295.39 1169.58 291.82 1166 290C1162.42 288.18 1157.11 284.4 1154.18 281.59C1151.25 278.79 1147.65 274.02 1146.18 271C1143.75 266 1143.5 264.44 1143.5 253.95C1143.5 242.69 1143.59 242.21 1147.14 234.95C1149.66 229.79 1152.44 226 1156.14 222.63C1159.09 219.95 1163.97 216.51 1167 214.99C1170.03 213.46 1175.2 211.43 1178.5 210.46C1181.8 209.5 1186.75 208.36 1189.5 207.91C1192.25 207.47 1200.35 207.28 1207.5 207.5ZM1445 207.47C1453.53 207.73 1460.04 208.52 1465.5 209.97C1469.9 211.14 1476.64 213.76 1480.48 215.8C1484.32 217.83 1490.17 222.04 1493.48 225.15C1496.79 228.26 1501.07 233.43 1503 236.65C1504.92 239.87 1507.53 246.1 1508.8 250.5C1510.7 257.08 1511.1 260.81 1511.06 271.5C1511.03 281.62 1510.47 286.94 1508.53 295.5C1506.85 302.91 1504.51 309.6 1501.35 316C1497.52 323.76 1495.18 326.97 1488.58 333.52C1483.17 338.89 1478.18 342.75 1473.5 345.18C1469.65 347.18 1463.8 349.7 1460.5 350.78C1457.2 351.86 1450.22 353.31 1445 353.99C1439.13 354.76 1432.25 354.96 1427 354.53C1422.33 354.14 1415.13 352.96 1411 351.91C1406.88 350.86 1400.13 348.34 1396 346.31C1390.65 343.68 1386.49 340.6 1381.5 335.56C1377.65 331.68 1373.28 326.25 1371.8 323.5C1370.31 320.75 1368.17 314.9 1367.03 310.5C1365.57 304.79 1364.98 299.34 1364.98 291.5C1364.98 285.45 1365.66 276.56 1366.49 271.75C1367.32 266.94 1369.11 259.51 1370.47 255.25C1371.84 250.99 1374.65 244.61 1376.72 241.08C1378.8 237.55 1383.42 231.75 1387 228.19C1390.58 224.63 1396.42 219.98 1400 217.86C1403.58 215.74 1409.99 212.88 1414.25 211.5C1418.51 210.13 1424.36 208.57 1427.25 208.05C1430.14 207.53 1438.13 207.27 1445 207.47ZM1432.26 247.32C1430.48 248.23 1428.15 250.21 1427.09 251.73C1426.03 253.26 1424.24 256.52 1423.12 259C1422 261.48 1420.17 268.79 1419.04 275.25C1417.92 281.71 1417.01 290.71 1417.01 295.25C1417.03 301.79 1417.49 304.41 1419.26 307.91C1420.49 310.33 1422.85 313.26 1424.5 314.41C1426.86 316.05 1429.02 316.5 1434.58 316.5C1440.74 316.5 1442.13 316.15 1445.33 313.75C1447.59 312.06 1450.17 308.6 1452.04 304.75C1454.03 300.66 1455.78 294.52 1457.09 287C1458.2 280.68 1459.15 271.68 1459.19 267C1459.24 262.32 1458.74 257.15 1458.08 255.5C1457.42 253.85 1455.44 251.04 1453.69 249.25C1451.93 247.46 1449.15 245.74 1447.5 245.42C1445.85 245.11 1443.83 244.71 1443 244.54C1442.17 244.37 1440.15 244.55 1438.5 244.95C1436.85 245.34 1434.04 246.41 1432.26 247.32ZM1302.03 210L1327.02 210C1348.56 210 1352 210.21 1352 211.5C1352 212.32 1346.61 243.26 1340.02 280.25C1333.43 317.24 1327.8 348.51 1327 352L1302 352C1282.66 352 1277 351.72 1277.01 350.75C1277.02 350.06 1282.42 319.13 1289 282C1295.59 244.88 1301.22 213.49 1301.51 212.25M622 255L621.99 257.25C621.99 258.49 620.42 268.5 618.49 279.5C616.57 290.5 615 299.61 615 299.75C615 299.89 596.33 300 573.5 300C537.28 300 532 299.81 532 298.5C532 297.68 533.59 288.11 535.53 277.25C537.47 266.39 539.26 256.94 539.5 256.25C539.85 255.28 549.06 255 622 255Z" />
</svg>