<svg xmlns="http://www.w3.org/2000/svg" viewBox="0 0 1225 1186" width="1225" height="1186">
	<style>
		tspan { white-space:pre }
		.shp0 { fill: #000000 } 
	</style>
	<path id="Path 0" fill-rule="evenodd" class="shp0" d="M621.17 0C623.83 0 628.14 0.45 630.75 1C633.36 1.55 645.4 2.43 657.5 2.97C669.6 3.5 687.15 4.41 696.5 4.98C705.85 5.56 723.4 6.71 735.5 7.56C747.6 8.4 760.2 9.7 763.5 10.45C766.8 11.2 772.65 12.73 776.5 13.84C780.35 14.95 789.58 17.19 797 18.82C804.42 20.45 817.7 23.81 826.5 26.28C835.3 28.76 846.77 31.76 852 32.95C857.23 34.14 864.42 36.18 868 37.47C871.58 38.76 880.35 42.3 887.5 45.33C894.65 48.37 905.67 53.53 912 56.79C918.33 60.06 929.58 65.86 937 69.7C944.42 73.53 953.2 78.39 956.5 80.49C959.8 82.58 964.3 85.56 966.5 87.1C968.7 88.65 977.37 94.77 985.76 100.7C994.16 106.64 1003.83 113.4 1007.26 115.72C1010.69 118.04 1015.08 121.06 1017 122.44C1018.92 123.82 1023.2 126.85 1026.5 129.18C1029.8 131.51 1037.7 138.61 1044.05 144.96C1050.4 151.31 1067.1 168.43 1081.16 183C1095.22 197.57 1110.18 213.32 1114.39 218C1118.61 222.68 1125.76 231.8 1130.28 238.27C1134.8 244.74 1139.95 252.17 1141.72 254.77C1143.5 257.37 1146.29 261.3 1147.93 263.5C1149.57 265.7 1152.49 269.52 1154.42 272C1156.35 274.48 1159.14 278.52 1160.63 281C1162.11 283.48 1164.31 286.63 1165.52 288C1166.72 289.38 1169.08 292.52 1170.76 295C1172.44 297.48 1177.45 307.94 1181.91 318.25C1186.36 328.56 1190 337.68 1190 338.5C1190 339.32 1191.81 344.39 1194.02 349.75C1196.23 355.11 1198.02 359.95 1198 360.5C1197.99 361.05 1199.62 365.32 1201.63 370C1203.65 374.68 1206.17 381.88 1207.25 386C1208.32 390.13 1209.63 395.98 1210.16 399C1210.68 402.02 1211.53 405.85 1212.03 407.5C1212.53 409.15 1213.63 415 1214.48 420.5C1215.32 426 1216.7 433.88 1217.54 438C1218.38 442.13 1219.75 449.77 1220.59 455C1221.42 460.23 1222.63 465.85 1223.28 467.5C1224.12 469.64 1224.55 486.92 1225.1 585.5L1219.47 628C1216.38 651.38 1213.58 670.95 1213.25 671.5C1212.92 672.05 1211.83 675.76 1210.82 679.75C1209.82 683.74 1208.06 690.49 1206.91 694.75C1205.76 699.01 1204.41 705.2 1203.9 708.5C1203.4 711.8 1202.71 715.17 1202.38 716C1202.04 716.83 1201.4 718.85 1200.95 720.5C1200.51 722.15 1199.21 726.99 1198.07 731.25C1196.93 735.51 1195.06 742.49 1193.91 746.75C1192.76 751.01 1191.4 757.2 1190.89 760.5C1190.37 763.8 1189.46 768.08 1188.86 770C1188.26 771.92 1182.68 785.65 1176.46 800.5C1170.24 815.35 1162.83 833.13 1159.99 840C1157.15 846.88 1153.53 854.52 1151.94 857C1150.35 859.48 1149.04 861.95 1149.02 862.5C1149.01 863.05 1146.84 867.1 1144.2 871.5C1141.56 875.9 1137.29 882.99 1134.7 887.25C1132.12 891.51 1130 895.34 1130 895.75C1130 896.16 1127.69 900.33 1124.88 905C1122.06 909.67 1117.49 917.33 1114.73 922C1111.97 926.67 1107.7 934.33 1105.24 939C1102.79 943.67 1099.54 949.3 1098.03 951.5C1096.52 953.7 1094.47 957.08 1093.47 959C1092.47 960.92 1086.67 967.8 1080.58 974.28C1074.49 980.76 1065.45 990.73 1060.5 996.45C1055.55 1002.16 1047.47 1011.49 1042.53 1017.17C1037.6 1022.85 1028.38 1032.68 1022.03 1039.01C1015.69 1045.33 1004.97 1055.23 998.21 1061.01C991.44 1066.78 981.25 1075.55 975.55 1080.5C969.86 1085.45 961.85 1092.42 957.76 1096C952.76 1100.38 947.08 1104.06 940.41 1107.28C934.96 1109.91 928.25 1113.2 925.5 1114.6C922.75 1116 913.52 1120.69 905 1125.01C896.48 1129.34 882.08 1136.46 873 1140.83C863.92 1145.2 853.35 1149.9 849.5 1151.26C845.65 1152.63 840.48 1154.31 838 1155C835.52 1155.69 830.58 1157.32 827 1158.62C823.42 1159.93 820.05 1160.99 819.5 1160.99C818.95 1160.99 815.8 1162.07 812.5 1163.39C809.2 1164.71 804.48 1166.33 802 1166.99C799.52 1167.65 794.58 1169.2 791 1170.44C787.42 1171.68 782.92 1173.18 781 1173.76C779.08 1174.35 774.58 1175.51 771 1176.35C767.42 1177.19 760.23 1178.33 755 1178.88C749.77 1179.44 739.88 1180.38 733 1180.99C726.13 1181.59 707 1182.97 690.5 1184.04C668.27 1185.48 649.36 1185.98 617.5 1185.97C593.85 1185.96 569.1 1185.5 562.5 1184.96C555.9 1184.41 545.55 1183.52 539.5 1182.99C533.45 1182.46 519.73 1181.38 509 1180.59C498.27 1179.8 487.7 1178.83 485.5 1178.43C483.3 1178.03 479.48 1176.81 477 1175.73C474.52 1174.65 471.15 1173.41 469.5 1172.99C467.85 1172.56 463.57 1171.2 460 1169.96C456.43 1168.71 450.57 1166.68 447 1165.44C443.43 1164.2 438.48 1162.65 436 1161.99C433.52 1161.33 428.8 1159.78 425.5 1158.54C422.2 1157.3 416.57 1155.28 413 1154.04C409.43 1152.8 405.15 1151.45 403.5 1151.04C401.85 1150.64 393.52 1147.38 385 1143.8C376.48 1140.22 367.02 1136.47 364 1135.48C360.98 1134.49 352.88 1131.27 346 1128.33C339.13 1125.38 332.94 1122.98 332.25 1122.99C331.56 1123 327.74 1121.6 323.75 1119.89C319.76 1118.18 312.96 1114.7 308.64 1112.14C304.32 1109.59 299.15 1106.13 297.14 1104.45C295.14 1102.77 291.48 1100.22 289 1098.78C286.52 1097.35 282.52 1094.68 280.09 1092.84C277.66 1091 272.83 1087.7 269.34 1085.5C265.85 1083.3 261.09 1080.04 258.75 1078.26C256.41 1076.49 247.07 1070.04 238 1063.95C228.93 1057.85 218.94 1050.76 215.81 1048.18C212.68 1045.61 206.83 1040.64 202.81 1037.14C198.79 1033.63 190.81 1026.66 185.07 1021.64C179.34 1016.61 168.16 1006.42 160.24 999C152.31 991.58 143.79 983.02 141.3 980C138.82 976.98 135.93 972.81 134.89 970.75C133.85 968.69 132.55 966.77 132 966.5C131.45 966.23 128.76 962.51 126.03 958.25C123.3 953.99 119.72 948.7 118.08 946.5C116.43 944.3 113.51 940.48 111.58 938C109.65 935.52 106.3 930.58 104.14 927C101.98 923.42 98.48 918.39 96.36 915.82C94.24 913.24 90.96 908.52 89.07 905.32C87.18 902.12 84.67 898.38 83.49 897C82.3 895.63 78.86 890.9 75.84 886.5C72.82 882.1 68.71 875.35 66.71 871.5C64.7 867.65 60.63 859.33 57.65 853C54.67 846.67 49.55 835.88 46.27 829C42.99 822.13 37.81 810.42 34.77 803C31.73 795.58 28.75 787.92 28.14 786C27.54 784.08 26.63 779.8 26.11 776.5C25.6 773.2 24.21 766.9 23.02 762.5C21.83 758.1 20.49 753.15 20.05 751.5C19.6 749.85 18.96 747.83 18.62 747C18.29 746.17 17.6 742.8 17.1 739.5C16.59 736.2 15.2 729.9 13.99 725.5C12.79 721.1 11.37 715.02 10.84 712C10.32 708.98 9.47 705.15 8.96 703.5C8.46 701.85 7.6 697.8 7.06 694.5C6.52 691.2 5.58 685.8 4.98 682.5C4.38 679.2 3.47 675.15 2.97 673.5C2.47 671.85 1.6 667.35 1.05 663.5C0.46 659.42 0.03 631.08 0.01 595.5C-0.01 546 0.28 532.43 1.52 523.5C2.37 517.45 3.49 511.15 4.01 509.5C4.54 507.85 5.91 499.07 7.06 490C8.22 480.93 9.44 473.05 9.78 472.5C10.12 471.95 10.99 467.23 11.71 462C12.42 456.77 14.08 449.57 15.38 446C16.68 442.43 18.31 437.48 18.99 435C19.68 432.52 21.31 427.69 22.62 424.25C23.93 420.81 25 417.32 25 416.5C25 415.68 26.07 412.41 27.39 409.25C28.7 406.09 30.32 401.48 30.99 399C31.66 396.52 33.88 390 35.92 384.5C37.96 379 40.36 372.48 41.24 370C42.13 367.52 43.4 363.93 44.06 362C44.73 360.07 46.94 354 48.96 348.5C50.99 343 53.24 336.7 53.96 334.5C54.67 332.3 56.75 327.35 58.57 323.5C60.39 319.65 64 313.13 66.59 309C69.18 304.88 73.1 298.57 75.3 295C77.51 291.43 82.9 282.88 87.3 276C91.7 269.13 97.66 259.9 100.56 255.5C103.45 251.1 109.51 243 114.03 237.5C118.55 232 124.38 224.35 126.98 220.5C129.59 216.65 138.62 206.07 147.06 197C155.5 187.93 171.43 171.46 182.45 160.42C198.51 144.33 206.18 137.56 221 126.35C231.18 118.66 244.68 108.79 251 104.42C257.32 100.05 267 93.6 272.5 90.09C278 86.59 283.85 82.6 285.5 81.23C287.15 79.86 292.55 76.39 297.5 73.51C302.45 70.63 315.84 63.48 327.25 57.64C338.66 51.79 352.39 45.47 357.75 43.6C363.11 41.74 380.21 35.44 395.75 29.6C417.46 21.45 426.26 18.64 433.75 17.44C439.11 16.58 446.43 15.48 450 14.99C453.57 14.5 463.93 12.98 473 11.61C482.07 10.24 494.23 8.41 500 7.55C505.77 6.68 513.65 5.33 517.5 4.55C522.31 3.57 538.76 2.76 570 1.97C595.02 1.34 615.69 0.63 615.92 0.41C616.15 0.18 618.51 0 621.17 0ZM555.5 82.96C547.25 83.59 536.23 84.76 531 85.57C525.77 86.38 510.7 88.84 497.5 91.05C484.3 93.25 466.75 96.2 458.5 97.6C450.25 98.99 440.13 101.18 436 102.46C431.88 103.74 421.75 106.69 413.5 109.02C405.25 111.36 394.45 114.35 389.5 115.67C384.55 117 379.15 118.56 377.5 119.13C375.85 119.71 372.7 120.61 370.5 121.15C368.3 121.68 364.7 123.16 362.5 124.43C360.3 125.71 351.3 130.57 342.5 135.23C330.71 141.48 320.16 148.29 302.39 161.11C289.13 170.67 272.03 183.28 264.39 189.13C256.75 194.98 249.37 201.05 247.98 202.63C246.59 204.21 244.46 206.96 243.23 208.75L241 212C247.14 223.24 254.35 233.93 260.98 243C267.62 252.07 278.34 266.93 284.81 276C291.28 285.07 300.81 298.8 305.97 306.5C311.14 314.2 319.48 326.57 324.5 334C329.53 341.43 340.2 357.85 348.22 370.5C356.25 383.15 366.13 398 370.19 403.5C374.25 409 381.57 419.35 386.46 426.5C391.34 433.65 398.55 443.32 402.47 448C406.4 452.68 412.29 459.87 415.56 463.99C418.83 468.11 422.63 473.13 424 475.14C425.38 477.14 432.31 485.7 439.42 494.14C446.52 502.59 457.77 514.82 464.42 521.32C471.06 527.81 485.95 541.48 497.5 551.68C514.97 567.11 519.97 570.96 527.25 574.61C532.75 577.37 542.04 580.67 552.25 583.49C561.19 585.96 574.13 589.13 581 590.53C587.88 591.93 597.77 593.35 603 593.67C608.23 594 621.73 593.72 633 593.05C644.27 592.39 656.65 591.51 660.5 591.1C665.94 590.52 669.84 589.22 678 585.25C683.77 582.43 694.13 576.6 701 572.29C707.88 567.97 718 561.11 723.5 557.04C729 552.98 738.49 544.44 744.59 538.07C750.69 531.71 763.29 518.1 772.59 507.84C784.69 494.49 793.93 482.98 805.07 467.34C813.64 455.33 823.38 441.45 826.71 436.5C830.04 431.55 844.46 409.95 858.75 388.5C873.04 367.05 891.05 340.05 898.77 328.5C909.99 311.73 916.24 300.86 929.83 274.5C939.18 256.35 953.17 229.35 960.91 214.5L974.98 187.5C971.51 184.71 963.52 179.14 955 173.33C946.48 167.52 934.77 159.26 929 154.99C923.23 150.71 910.17 142.72 900 137.23C889.83 131.74 877.56 125.39 872.75 123.12C867.94 120.85 854.66 116.33 843.25 113.06C831.84 109.79 812.15 104.22 799.5 100.67C786.85 97.13 773.13 93.46 769 92.52C764.88 91.58 758.35 90.16 754.5 89.36C750.65 88.57 739.63 86.79 730 85.41C720.38 84.03 708 82.46 702.5 81.93C697 81.41 687.77 80.53 682 79.99C676.23 79.45 658.23 79.06 642 79.13C625.77 79.2 603.05 79.84 591.5 80.55C579.95 81.25 563.75 82.34 555.5 82.96ZM1049.61 289C1046.91 293.13 1038.19 308.43 1030.23 323C1022.26 337.57 1004.26 370.2 990.24 395.5C976.21 420.8 957.76 454.1 949.24 469.5C940.72 484.9 928.91 505.6 923.01 515.5C917.1 525.4 909.12 538.67 905.27 545C901.42 551.33 890.41 569.77 880.79 586C870.03 604.16 855.81 630.3 843.8 654C824.82 691.45 824.12 693.05 818.19 712.5C814.83 723.5 809.82 741.95 807.06 753.5C804.29 765.05 801.35 777.65 800.52 781.5C799.69 785.35 797.45 796.83 795.53 807C793.62 817.17 790.23 836.3 788 849.5C785.78 862.7 782.84 879.8 781.48 887.5C780.11 895.2 778.09 908.25 776.99 916.5C775.23 929.74 774.87 941.06 773.95 1013C773.37 1057.83 773.04 1094.58 773.2 1094.67C773.37 1094.76 775.75 1094.24 778.5 1093.52C781.25 1092.79 785.64 1091.25 788.25 1090.1C790.86 1088.94 793.56 1088 794.25 1088C794.94 1087.99 798.42 1086.93 802 1085.62C805.58 1084.32 810.52 1082.69 813 1081.99C815.48 1081.3 819.98 1079.86 823 1078.8C826.02 1077.73 832.33 1074.88 837 1072.47C841.67 1070.06 851.35 1065.29 858.5 1061.87C865.65 1058.45 875.55 1053.44 880.5 1050.73C885.45 1048.03 893.55 1044.04 898.5 1041.87C904.08 1039.43 909.02 1036.44 911.5 1034.01C913.7 1031.86 919.87 1026.36 925.21 1021.8C930.55 1017.23 940.43 1008.77 947.18 1003C953.92 997.23 963.05 988.9 967.47 984.5C971.88 980.1 979.55 971.85 984.5 966.18C989.45 960.5 996.82 951.95 1000.89 947.18C1004.95 942.4 1012.54 934 1017.76 928.5C1022.98 923 1029.29 915.35 1031.78 911.5C1034.27 907.65 1037.36 902.14 1038.65 899.25C1039.94 896.36 1042.52 891.64 1044.37 888.75C1046.22 885.86 1049.9 879.9 1052.55 875.5C1055.2 871.1 1059.23 863.9 1061.5 859.5C1063.77 855.1 1068.21 847.45 1071.36 842.5C1074.52 837.55 1078.49 830.58 1080.17 827C1081.86 823.42 1084.04 819.38 1085.03 818C1086.02 816.63 1088.26 811.9 1090.02 807.5C1091.77 803.1 1098.05 788.02 1103.98 774C1110.34 758.95 1115.17 746.04 1115.77 742.5C1116.33 739.2 1117.73 733.01 1118.89 728.75C1120.05 724.49 1121.93 717.51 1123.07 713.25C1124.21 708.99 1125.59 703.92 1126.15 702C1126.7 700.08 1127.57 695.8 1128.08 692.5C1128.59 689.2 1129.28 685.83 1129.61 685C1129.94 684.17 1131.07 680.24 1132.11 676.25C1133.15 672.26 1134.94 665.51 1136.09 661.25C1137.24 656.99 1140.4 637.3 1143.1 617.5L1148.01 581.5C1147.36 491.96 1146.96 479.72 1145.74 473C1144.88 468.32 1143.45 460.9 1142.55 456.5C1141.65 452.1 1140.24 444.23 1139.4 439C1138.57 433.77 1137.47 428.15 1136.97 426.5C1136.46 424.85 1135.62 420.8 1135.1 417.5C1134.58 414.2 1133.7 409.7 1133.14 407.5C1132.58 405.3 1130.52 399.79 1128.56 395.25C1126.6 390.71 1125.01 386.44 1125.02 385.75C1125.02 385.06 1123.22 380.34 1121.02 375.25C1118.81 370.16 1117 365.32 1117 364.5C1117 363.68 1114.71 357.49 1111.91 350.75C1109.11 344.01 1105.62 337.01 1104.16 335.19C1102.7 333.37 1099.92 329.51 1098 326.62C1096.08 323.72 1092.92 319.18 1091 316.53C1089.08 313.87 1085.98 309.86 1084.13 307.6C1082.28 305.35 1079.97 301.93 1079.01 300C1078.04 298.07 1076.63 295.99 1075.87 295.37C1075.12 294.74 1071.58 289.89 1068 284.58C1064.42 279.26 1060.96 274.94 1060.31 274.96C1059.65 274.98 1058.08 276.46 1056.81 278.25C1055.54 280.04 1052.3 284.88 1049.61 289ZM141.62 336C138.88 340.68 135.52 346.75 134.17 349.5C132.82 352.25 130.5 356.3 129.02 358.5C127.54 360.7 124.51 367.23 122.3 373C120.08 378.77 117.57 385.52 116.71 388C115.85 390.48 114.59 394.07 113.91 396C113.23 397.93 111 404 108.94 409.5C106.89 415 104.66 421.52 103.98 424C103.31 426.48 101.69 431.31 100.38 434.75C99.07 438.19 98 441.68 98 442.5C98 443.32 96.93 446.59 95.61 449.75C94.3 452.91 92.67 457.52 91.99 460C91.32 462.48 90.18 466.07 89.48 468C88.77 469.93 87.69 475.1 87.07 479.5C86.45 483.9 85.51 488.85 84.98 490.5C84.44 492.15 83.07 500.93 81.92 510C80.77 519.08 79.31 527.4 78.66 528.5C77.82 529.95 77.42 547.36 77.21 591.5C77.02 631.98 77.27 653.34 77.96 655C78.53 656.38 79.43 660.2 79.96 663.5C80.49 666.8 81.42 672.2 82.02 675.5C82.62 678.8 83.53 682.85 84.04 684.5C84.54 686.15 85.37 690.2 85.89 693.5C86.4 696.8 87.71 702.88 88.8 707C89.89 711.13 91.06 715.17 91.39 716C91.72 716.83 92.41 720.2 92.92 723.5C93.43 726.8 94.3 731.08 94.85 733C95.41 734.92 96.84 740.1 98.04 744.5C99.24 748.9 100.67 755.2 101.23 758.5C101.78 761.8 103.8 768.33 105.7 773C107.61 777.67 111.38 786.11 114.08 791.75C116.79 797.39 121.21 806.61 123.92 812.25C126.62 817.89 130.4 825.88 132.31 830C134.23 834.13 138.32 840.88 141.41 845C144.49 849.13 148.25 854.43 149.76 856.78C151.27 859.14 154.18 863.42 156.24 866.28C158.3 869.15 162.22 874.88 164.96 879C167.7 883.13 171.28 888.3 172.92 890.5C174.57 892.7 177.49 896.52 179.42 899C181.35 901.48 184.84 906.65 187.18 910.5C189.52 914.35 192.64 918.85 194.12 920.5C195.6 922.15 197.86 925.38 199.15 927.67C200.44 929.97 206.94 936.94 213.6 943.17C220.25 949.4 229.02 957.46 233.1 961.09C237.17 964.71 243.65 970.29 247.5 973.5C251.35 976.7 256.75 981.45 259.5 984.05C262.25 986.66 271.7 993.56 280.5 999.4C289.3 1005.23 298.07 1011.12 300 1012.49C301.93 1013.86 305.98 1016.62 309 1018.64C312.02 1020.65 316.3 1023.57 318.5 1025.13C320.7 1026.69 324.98 1029.61 328 1031.63C331.02 1033.65 335.3 1036.58 337.5 1038.15C339.7 1039.71 344.2 1042.82 347.5 1045.05C350.8 1047.28 354.63 1049.33 356 1049.62C357.38 1049.9 364.8 1052.75 372.5 1055.95C380.2 1059.14 388.3 1062.32 390.5 1063C392.7 1063.68 401.93 1067.34 411 1071.12C420.07 1074.91 427.95 1078 428.5 1078C429.05 1078.01 432.43 1079.06 436 1080.35C439.57 1081.64 444.3 1083.28 446.5 1083.99C448.7 1084.7 451.14 1085.56 451.92 1085.89C453.13 1086.41 453.23 1078.12 452.62 1027C452.23 994.27 451.77 963.67 451.59 959C451.42 954.33 450.77 942.17 450.14 932C449.51 921.83 448.28 903.15 447.41 890.5C446.54 877.85 444.97 862.55 443.92 856.5C442.88 850.45 441.52 843.7 440.92 841.5C440.31 839.3 439.21 834.58 438.47 831C437.73 827.42 436.43 820.9 435.57 816.5C434.72 812.1 433.53 806.7 432.92 804.5C432.32 802.3 431.39 798.02 430.86 795C430.32 791.98 429.47 788.15 428.96 786.5C428.46 784.85 427.62 780.8 427.1 777.5C426.59 774.2 425.21 767.45 424.05 762.5C422.89 757.55 421.47 751.25 420.9 748.5C420.32 745.75 419.44 742.38 418.93 741C418.42 739.63 417.59 735.8 417.09 732.5C416.59 729.2 415.29 723.13 414.21 719C413.12 714.88 410.11 706.55 407.51 700.5C404.91 694.45 400.06 684.55 396.73 678.5C393.4 672.45 388.89 664.13 386.69 660C384.5 655.88 380.6 648.45 378.03 643.5C375.46 638.55 370.57 629.44 367.18 623.25C363.78 617.06 361.01 611.66 361.01 611.25C361.02 610.84 359.38 607.8 357.35 604.5C355.33 601.2 351.58 594.45 349.02 589.5C346.45 584.55 341.8 575.89 338.68 570.25C335.56 564.61 330.45 555.39 327.34 549.75C324.23 544.11 320.03 536.35 318 532.5C315.98 528.65 312.85 523.02 311.04 520C309.23 516.98 306.77 512.25 305.57 509.5C304.36 506.75 301.86 502.25 300.01 499.5C298.15 496.75 296.15 493.38 295.56 492C294.96 490.63 293.23 487.7 291.71 485.5C290.18 483.3 286.94 478.57 284.5 475C282.06 471.43 278.82 466.57 277.28 464.21C275.75 461.86 266.18 447.58 256 432.48C245.82 417.39 236.5 403.57 235.27 401.77C234.05 399.97 230.81 395.13 228.07 391C225.34 386.88 222.06 382.2 220.8 380.61C219.53 379.03 217.15 375.61 215.5 373.01C213.85 370.42 211.24 366.55 209.69 364.4C208.15 362.26 205.22 357.97 203.19 354.87C201.16 351.78 198.25 347.5 196.72 345.37C195.19 343.24 191.94 338.57 189.51 335C187.08 331.43 182.85 325.13 180.11 321C177.37 316.88 174.04 312.15 172.71 310.5C171.38 308.85 169.22 305.82 167.9 303.76C166.58 301.71 165.26 300.02 164.98 300.01C164.69 300.01 160.44 306.19 155.53 313.75C150.63 321.31 144.37 331.32 141.62 336ZM620.5 275.7C626 275.96 634.1 276.85 638.5 277.69C642.9 278.52 649.88 280.34 654 281.73C658.13 283.12 665.33 286.18 670 288.54C674.67 290.89 681.88 295.19 686 298.1C690.13 301.01 696.9 306.79 701.05 310.95C705.21 315.1 710.99 321.88 713.9 326C716.81 330.13 721.11 337.32 723.46 342C725.82 346.68 728.94 354.1 730.4 358.5C731.86 362.9 733.79 370.32 734.68 375C735.66 380.13 736.31 388.65 736.31 396.5C736.31 404.35 735.66 412.87 734.68 418C733.79 422.68 731.86 430.1 730.4 434.5C728.94 438.9 725.82 446.32 723.46 451C721.11 455.68 716.81 462.88 713.9 467C710.99 471.13 705.21 477.9 701.05 482.05C696.9 486.21 690.13 491.99 686 494.9C681.88 497.81 674.67 502.11 670 504.46C665.33 506.82 657.9 509.94 653.5 511.4C649.1 512.86 641.67 514.79 637 515.68C631.87 516.66 623.35 517.31 615.5 517.31C607.65 517.31 599.13 516.66 594 515.68C589.33 514.79 581.9 512.86 577.5 511.4C573.1 509.94 565.67 506.82 561 504.46C556.33 502.11 549.13 497.81 545 494.9C540.88 491.99 534.1 486.21 529.95 482.05C525.79 477.9 520.01 471.13 517.1 467C514.19 462.88 509.89 455.68 507.54 451C505.18 446.32 502.06 438.9 500.6 434.5C499.14 430.1 497.21 422.68 496.32 418C495.34 412.87 494.69 404.35 494.69 396.5C494.69 388.65 495.34 380.13 496.32 375C497.21 370.32 499.14 362.9 500.6 358.5C502.06 354.1 505.18 346.68 507.54 342C509.89 337.32 514.19 330.13 517.1 326C520.01 321.88 525.79 315.1 529.95 310.95C534.1 306.79 540.88 301.01 545 298.1C549.13 295.19 556.33 290.89 561 288.54C565.67 286.18 573.1 283.06 577.5 281.6C581.9 280.14 589.12 278.32 593.54 277.57C597.97 276.82 603.59 275.98 606.04 275.72C608.49 275.46 615 275.45 620.5 275.7Z" />
</svg>