<svg xmlns="http://www.w3.org/2000/svg" viewBox="0 0 1500 1780" width="1500" height="1780">
	<style>
		tspan { white-space:pre }
		.shp0 { fill: #000000 } 
	</style>
	<path id="Path 0" fill-rule="evenodd" class="shp0" d="M779.17 477C781.83 477 786.14 477.45 788.75 478C791.36 478.55 803.4 479.43 815.5 479.97C827.6 480.5 845.15 481.41 854.5 481.98C863.85 482.56 881.4 483.71 893.5 484.56C905.6 485.4 918.2 486.7 921.5 487.45C924.8 488.2 930.65 489.73 934.5 490.84C938.35 491.95 947.58 494.19 955 495.82C962.42 497.45 975.7 500.81 984.5 503.28C993.3 505.76 1004.77 508.76 1010 509.95C1015.23 511.14 1022.42 513.18 1026 514.47C1029.58 515.76 1038.35 519.3 1045.5 522.33C1052.65 525.37 1063.67 530.53 1070 533.79C1076.33 537.06 1087.58 542.86 1095 546.7C1102.42 550.53 1111.2 555.39 1114.5 557.49C1117.8 559.58 1122.3 562.56 1124.5 564.1C1126.7 565.65 1135.37 571.77 1143.76 577.7C1152.16 583.64 1161.83 590.4 1165.26 592.72C1168.69 595.04 1173.08 598.06 1175 599.44C1176.92 600.82 1181.2 603.85 1184.5 606.18C1187.8 608.51 1195.7 615.61 1202.05 621.96C1208.4 628.31 1225.1 645.42 1239.16 660C1253.22 674.58 1268.18 690.33 1272.39 695C1276.61 699.67 1283.76 708.8 1288.28 715.27C1292.8 721.74 1297.95 729.17 1299.72 731.77C1301.5 734.37 1304.29 738.3 1305.93 740.5C1307.57 742.7 1310.49 746.52 1312.42 749C1314.35 751.48 1317.14 755.52 1318.63 758C1320.11 760.48 1322.31 763.63 1323.52 765C1324.72 766.38 1327.08 769.52 1328.76 772C1330.44 774.48 1335.45 784.94 1339.91 795.25C1344.36 805.56 1348 814.67 1348 815.5C1348 816.33 1349.81 821.39 1352.02 826.75C1354.23 832.11 1356.02 836.95 1356 837.5C1355.99 838.05 1357.62 842.33 1359.63 847C1361.65 851.67 1364.17 858.88 1365.25 863C1366.32 867.13 1367.63 872.98 1368.16 876C1368.68 879.02 1369.53 882.85 1370.03 884.5C1370.53 886.15 1371.63 892 1372.48 897.5C1373.32 903 1374.7 910.88 1375.54 915C1376.38 919.13 1377.75 926.77 1378.59 932C1379.42 937.23 1380.63 942.85 1381.28 944.5C1382.12 946.64 1382.55 963.92 1383.1 1062.5L1377.47 1105C1374.38 1128.38 1371.58 1147.95 1371.25 1148.5C1370.92 1149.05 1369.83 1152.76 1368.82 1156.75C1367.82 1160.74 1366.06 1167.49 1364.91 1171.75C1363.76 1176.01 1362.41 1182.2 1361.9 1185.5C1361.4 1188.8 1360.71 1192.17 1360.38 1193C1360.04 1193.83 1359.4 1195.85 1358.95 1197.5C1358.51 1199.15 1357.21 1203.99 1356.07 1208.25C1354.93 1212.51 1353.06 1219.49 1351.91 1223.75C1350.76 1228.01 1349.4 1234.2 1348.89 1237.5C1348.37 1240.8 1347.46 1245.08 1346.86 1247C1346.26 1248.92 1340.68 1262.65 1334.46 1277.5C1328.24 1292.35 1320.83 1310.13 1317.99 1317C1315.15 1323.88 1311.53 1331.53 1309.94 1334C1308.35 1336.47 1307.04 1338.95 1307.02 1339.5C1307.01 1340.05 1304.84 1344.1 1302.2 1348.5C1299.56 1352.9 1295.29 1359.99 1292.7 1364.25C1290.12 1368.51 1288 1372.34 1288 1372.75C1288 1373.16 1285.69 1377.33 1282.88 1382C1280.06 1386.67 1275.49 1394.33 1272.73 1399C1269.97 1403.67 1265.7 1411.33 1263.24 1416C1260.79 1420.67 1257.54 1426.3 1256.03 1428.5C1254.52 1430.7 1252.47 1434.08 1251.47 1436C1250.47 1437.92 1244.67 1444.8 1238.58 1451.28C1232.49 1457.76 1223.45 1467.73 1218.5 1473.45C1213.55 1479.16 1205.47 1488.49 1200.53 1494.17C1195.6 1499.85 1186.38 1509.68 1180.03 1516.01C1173.69 1522.33 1162.97 1532.23 1156.21 1538.01C1149.44 1543.78 1139.25 1552.55 1133.55 1557.5C1127.86 1562.45 1119.85 1569.42 1115.76 1573C1110.76 1577.38 1105.08 1581.06 1098.41 1584.28C1092.96 1586.91 1086.25 1590.2 1083.5 1591.6C1080.75 1593 1071.53 1597.69 1063 1602.01C1054.47 1606.34 1040.08 1613.46 1031 1617.83C1021.92 1622.2 1011.35 1626.9 1007.5 1628.26C1003.65 1629.63 998.48 1631.31 996 1632C993.52 1632.69 988.58 1634.32 985 1635.62C981.42 1636.93 978.05 1637.99 977.5 1637.99C976.95 1637.99 973.8 1639.07 970.5 1640.39C967.2 1641.71 962.48 1643.33 960 1643.99C957.52 1644.65 952.58 1646.2 949 1647.44C945.42 1648.68 940.92 1650.18 939 1650.76C937.08 1651.35 932.58 1652.51 929 1653.35C925.42 1654.19 918.23 1655.33 913 1655.88C907.77 1656.44 897.88 1657.38 891 1657.99C884.13 1658.59 865 1659.97 848.5 1661.04C826.27 1662.48 807.36 1662.98 775.5 1662.97C751.85 1662.96 727.1 1662.5 720.5 1661.96C713.9 1661.41 703.55 1660.52 697.5 1659.99C691.45 1659.46 677.73 1658.38 667 1657.59C656.27 1656.8 645.7 1655.83 643.5 1655.43C641.3 1655.03 637.48 1653.81 635 1652.73C632.52 1651.65 629.15 1650.41 627.5 1649.99C625.85 1649.56 621.58 1648.2 618 1646.96C614.42 1645.71 608.58 1643.68 605 1642.44C601.42 1641.2 596.48 1639.65 594 1638.99C591.52 1638.33 586.8 1636.78 583.5 1635.54C580.2 1634.3 574.58 1632.28 571 1631.04C567.42 1629.8 563.15 1628.45 561.5 1628.04C559.85 1627.64 551.52 1624.38 543 1620.8C534.48 1617.22 525.02 1613.47 522 1612.48C518.98 1611.49 510.88 1608.27 504 1605.33C497.13 1602.38 490.94 1599.98 490.25 1599.99C489.56 1600 485.74 1598.6 481.75 1596.89C477.76 1595.18 470.96 1591.7 466.64 1589.14C462.32 1586.59 457.15 1583.13 455.14 1581.45C453.14 1579.77 449.48 1577.22 447 1575.78C444.52 1574.35 440.52 1571.68 438.09 1569.84C435.66 1568 430.83 1564.7 427.34 1562.5C423.85 1560.3 419.09 1557.04 416.75 1555.26C414.41 1553.49 405.07 1547.04 396 1540.95C386.93 1534.85 376.94 1527.76 373.81 1525.18C370.68 1522.61 364.83 1517.64 360.81 1514.14C356.79 1510.63 348.81 1503.66 343.07 1498.64C337.34 1493.61 326.16 1483.42 318.24 1476C310.31 1468.58 301.79 1460.03 299.3 1457C296.82 1453.97 293.93 1449.81 292.89 1447.75C291.85 1445.69 290.55 1443.78 290 1443.5C289.45 1443.22 286.76 1439.51 284.03 1435.25C281.3 1430.99 277.72 1425.7 276.08 1423.5C274.43 1421.3 271.51 1417.47 269.58 1415C267.65 1412.53 264.3 1407.58 262.14 1404C259.98 1400.42 256.48 1395.39 254.36 1392.82C252.24 1390.24 248.96 1385.52 247.07 1382.32C245.18 1379.12 242.67 1375.38 241.49 1374C240.3 1372.63 236.86 1367.9 233.84 1363.5C230.82 1359.1 226.71 1352.35 224.71 1348.5C222.7 1344.65 218.63 1336.33 215.65 1330C212.67 1323.67 207.55 1312.88 204.27 1306C200.99 1299.13 195.81 1287.42 192.77 1280C189.73 1272.58 186.75 1264.92 186.14 1263C185.54 1261.08 184.63 1256.8 184.11 1253.5C183.6 1250.2 182.21 1243.9 181.02 1239.5C179.83 1235.1 178.49 1230.15 178.05 1228.5C177.6 1226.85 176.96 1224.83 176.62 1224C176.29 1223.17 175.6 1219.8 175.1 1216.5C174.59 1213.2 173.2 1206.9 171.99 1202.5C170.79 1198.1 169.37 1192.03 168.84 1189C168.32 1185.97 167.47 1182.15 166.96 1180.5C166.46 1178.85 165.6 1174.8 165.06 1171.5C164.52 1168.2 163.58 1162.8 162.98 1159.5C162.38 1156.2 161.47 1152.15 160.97 1150.5C160.47 1148.85 159.6 1144.35 159.05 1140.5C158.46 1136.42 158.03 1108.08 158.01 1072.5C157.99 1023 158.28 1009.43 159.52 1000.5C160.37 994.45 161.49 988.15 162.01 986.5C162.54 984.85 163.91 976.08 165.06 967C166.22 957.92 167.44 950.05 167.78 949.5C168.12 948.95 168.99 944.23 169.71 939C170.42 933.77 172.08 926.58 173.38 923C174.68 919.42 176.31 914.48 176.99 912C177.68 909.52 179.31 904.69 180.62 901.25C181.93 897.81 183 894.33 183 893.5C183 892.67 184.07 889.41 185.39 886.25C186.7 883.09 188.32 878.48 188.99 876C189.66 873.52 191.88 867 193.92 861.5C195.96 856 198.36 849.48 199.24 847C200.13 844.52 201.4 840.92 202.06 839C202.73 837.08 204.94 831 206.96 825.5C208.99 820 211.24 813.7 211.96 811.5C212.67 809.3 214.75 804.35 216.57 800.5C218.39 796.65 222 790.13 224.59 786C227.18 781.88 231.1 775.58 233.3 772C235.51 768.42 240.9 759.88 245.3 753C249.7 746.13 255.66 736.9 258.56 732.5C261.45 728.1 267.51 720 272.03 714.5C276.55 709 282.38 701.35 284.98 697.5C287.59 693.65 296.62 683.08 305.06 674C313.5 664.92 329.43 648.46 340.45 637.42C356.51 621.33 364.18 614.56 379 603.35C389.18 595.66 402.68 585.79 409 581.42C415.32 577.05 425 570.6 430.5 567.09C436 563.59 441.85 559.6 443.5 558.23C445.15 556.86 450.55 553.39 455.5 550.51C460.45 547.63 473.84 540.48 485.25 534.64C496.66 528.79 510.39 522.47 515.75 520.6C521.11 518.74 538.21 512.44 553.75 506.6C575.46 498.45 584.26 495.64 591.75 494.44C597.11 493.58 604.42 492.48 608 491.99C611.58 491.5 621.92 489.98 631 488.61C640.08 487.24 652.23 485.41 658 484.55C663.77 483.68 671.65 482.33 675.5 481.55C680.31 480.57 696.76 479.76 728 478.97C753.02 478.34 773.69 477.63 773.92 477.41C774.15 477.18 776.51 477 779.17 477ZM713.5 559.96C705.25 560.59 694.23 561.76 689 562.57C683.77 563.38 668.7 565.84 655.5 568.05C642.3 570.25 624.75 573.2 616.5 574.6C608.25 575.99 598.13 578.18 594 579.46C589.88 580.74 579.75 583.69 571.5 586.02C563.25 588.36 552.45 591.35 547.5 592.67C542.55 594 537.15 595.56 535.5 596.13C533.85 596.71 530.7 597.61 528.5 598.15C526.3 598.68 522.7 600.16 520.5 601.43C518.3 602.71 509.3 607.57 500.5 612.23C488.71 618.48 478.16 625.29 460.39 638.11C447.13 647.67 430.03 660.28 422.39 666.13C414.75 671.98 407.37 678.05 405.98 679.63C404.59 681.21 402.46 683.96 401.23 685.75L399 689C405.14 700.24 412.35 710.92 418.98 720C425.62 729.08 436.34 743.92 442.81 753C449.28 762.08 458.81 775.8 463.97 783.5C469.14 791.2 477.48 803.58 482.5 811C487.53 818.42 498.2 834.85 506.22 847.5C514.25 860.15 524.13 875 528.19 880.5C532.25 886 539.57 896.35 544.46 903.5C549.34 910.65 556.55 920.33 560.47 925C564.4 929.67 570.29 936.87 573.56 940.99C576.83 945.11 580.63 950.13 582 952.14C583.38 954.14 590.31 962.7 597.42 971.14C604.52 979.59 615.77 991.82 622.42 998.32C629.06 1004.81 643.95 1018.48 655.5 1028.68C672.97 1044.11 677.97 1047.96 685.25 1051.61C690.75 1054.37 700.04 1057.67 710.25 1060.49C719.19 1062.96 732.13 1066.13 739 1067.53C745.88 1068.93 755.77 1070.35 761 1070.67C766.23 1071 779.73 1070.72 791 1070.05C802.27 1069.39 814.65 1068.51 818.5 1068.1C823.94 1067.52 827.84 1066.22 836 1062.25C841.77 1059.43 852.13 1053.6 859 1049.29C865.88 1044.97 876 1038.11 881.5 1034.04C887 1029.98 896.49 1021.44 902.59 1015.07C908.69 1008.71 921.29 995.1 930.59 984.84C942.69 971.49 951.93 959.98 963.07 944.34C971.64 932.33 981.38 918.45 984.71 913.5C988.04 908.55 1002.46 886.95 1016.75 865.5C1031.04 844.05 1049.05 817.05 1056.77 805.5C1067.99 788.73 1074.24 777.86 1087.83 751.5C1097.18 733.35 1111.17 706.35 1118.91 691.5L1132.98 664.5C1129.51 661.71 1121.53 656.14 1113 650.33C1104.47 644.52 1092.78 636.26 1087 631.99C1081.22 627.71 1068.17 619.72 1058 614.23C1047.83 608.74 1035.56 602.39 1030.75 600.12C1025.94 597.85 1012.66 593.33 1001.25 590.06C989.84 586.79 970.15 581.22 957.5 577.67C944.85 574.13 931.13 570.46 927 569.52C922.88 568.58 916.35 567.16 912.5 566.36C908.65 565.57 897.63 563.79 888 562.41C878.38 561.03 866 559.46 860.5 558.93C855 558.41 845.77 557.53 840 556.99C834.23 556.45 816.23 556.06 800 556.13C783.77 556.2 761.05 556.84 749.5 557.55C737.95 558.25 721.75 559.34 713.5 559.96ZM1207.61 766C1204.91 770.13 1196.19 785.42 1188.23 800C1180.26 814.58 1162.26 847.2 1148.24 872.5C1134.21 897.8 1115.76 931.1 1107.24 946.5C1098.72 961.9 1086.91 982.6 1081.01 992.5C1075.1 1002.4 1067.12 1015.67 1063.27 1022C1059.42 1028.33 1048.41 1046.78 1038.79 1063C1028.03 1081.16 1013.81 1107.3 1001.8 1131C982.82 1168.45 982.12 1170.05 976.19 1189.5C972.83 1200.5 967.82 1218.95 965.06 1230.5C962.29 1242.05 959.35 1254.65 958.52 1258.5C957.69 1262.35 955.45 1273.83 953.53 1284C951.62 1294.17 948.23 1313.3 946 1326.5C943.78 1339.7 940.84 1356.8 939.48 1364.5C938.11 1372.2 936.09 1385.25 934.99 1393.5C933.23 1406.74 932.87 1418.06 931.95 1490C931.37 1534.83 931.04 1571.58 931.2 1571.67C931.37 1571.76 933.75 1571.24 936.5 1570.52C939.25 1569.79 943.64 1568.25 946.25 1567.1C948.86 1565.94 951.56 1565 952.25 1565C952.94 1564.99 956.42 1563.93 960 1562.62C963.58 1561.32 968.52 1559.69 971 1558.99C973.48 1558.3 977.98 1556.86 981 1555.8C984.02 1554.73 990.33 1551.88 995 1549.47C999.67 1547.06 1009.35 1542.29 1016.5 1538.87C1023.65 1535.45 1033.55 1530.44 1038.5 1527.73C1043.45 1525.03 1051.55 1521.04 1056.5 1518.87C1062.08 1516.43 1067.02 1513.44 1069.5 1511.01C1071.7 1508.86 1077.87 1503.36 1083.21 1498.8C1088.55 1494.23 1098.43 1485.78 1105.18 1480C1111.92 1474.22 1121.05 1465.9 1125.47 1461.5C1129.88 1457.1 1137.55 1448.85 1142.5 1443.18C1147.45 1437.5 1154.82 1428.95 1158.89 1424.18C1162.95 1419.4 1170.54 1411 1175.76 1405.5C1180.98 1400 1187.29 1392.35 1189.78 1388.5C1192.27 1384.65 1195.36 1379.14 1196.65 1376.25C1197.94 1373.36 1200.52 1368.64 1202.37 1365.75C1204.22 1362.86 1207.9 1356.9 1210.55 1352.5C1213.2 1348.1 1217.23 1340.9 1219.5 1336.5C1221.77 1332.1 1226.21 1324.45 1229.36 1319.5C1232.52 1314.55 1236.49 1307.58 1238.17 1304C1239.86 1300.42 1242.04 1296.38 1243.03 1295C1244.02 1293.63 1246.26 1288.9 1248.02 1284.5C1249.77 1280.1 1256.05 1265.03 1261.98 1251C1268.34 1235.95 1273.17 1223.04 1273.77 1219.5C1274.33 1216.2 1275.73 1210.01 1276.89 1205.75C1278.05 1201.49 1279.93 1194.51 1281.07 1190.25C1282.21 1185.99 1283.59 1180.92 1284.15 1179C1284.7 1177.08 1285.57 1172.8 1286.08 1169.5C1286.59 1166.2 1287.28 1162.83 1287.61 1162C1287.94 1161.17 1289.07 1157.24 1290.11 1153.25C1291.15 1149.26 1292.94 1142.51 1294.09 1138.25C1295.24 1133.99 1298.4 1114.3 1301.1 1094.5L1306.01 1058.5C1305.36 968.96 1304.96 956.72 1303.74 950C1302.88 945.33 1301.45 937.9 1300.55 933.5C1299.65 929.1 1298.24 921.23 1297.4 916C1296.57 910.77 1295.47 905.15 1294.97 903.5C1294.46 901.85 1293.62 897.8 1293.1 894.5C1292.58 891.2 1291.7 886.7 1291.14 884.5C1290.58 882.3 1288.52 876.79 1286.56 872.25C1284.6 867.71 1283.01 863.44 1283.02 862.75C1283.02 862.06 1281.22 857.34 1279.02 852.25C1276.81 847.16 1275 842.33 1275 841.5C1275 840.67 1272.71 834.49 1269.91 827.75C1267.11 821.01 1263.62 814.01 1262.16 812.19C1260.7 810.37 1257.92 806.51 1256 803.62C1254.08 800.72 1250.92 796.18 1249 793.53C1247.08 790.87 1243.98 786.86 1242.13 784.6C1240.28 782.35 1237.97 778.92 1237.01 777C1236.04 775.08 1234.63 772.99 1233.87 772.37C1233.12 771.74 1229.58 766.89 1226 761.58C1222.42 756.26 1218.96 751.94 1218.31 751.96C1217.65 751.98 1216.08 753.46 1214.81 755.25C1213.54 757.04 1210.3 761.88 1207.61 766ZM299.62 813C296.88 817.67 293.52 823.75 292.17 826.5C290.82 829.25 288.5 833.3 287.02 835.5C285.54 837.7 282.51 844.23 280.3 850C278.08 855.77 275.57 862.52 274.71 865C273.85 867.48 272.59 871.08 271.91 873C271.23 874.92 269 881 266.94 886.5C264.89 892 262.66 898.52 261.98 901C261.31 903.48 259.69 908.31 258.38 911.75C257.07 915.19 256 918.67 256 919.5C256 920.33 254.93 923.59 253.61 926.75C252.3 929.91 250.67 934.52 249.99 937C249.32 939.48 248.18 943.08 247.48 945C246.77 946.92 245.69 952.1 245.07 956.5C244.45 960.9 243.51 965.85 242.98 967.5C242.44 969.15 241.07 977.92 239.92 987C238.77 996.08 237.31 1004.4 236.66 1005.5C235.82 1006.95 235.42 1024.36 235.21 1068.5C235.02 1108.98 235.27 1130.34 235.96 1132C236.53 1133.38 237.43 1137.2 237.96 1140.5C238.49 1143.8 239.42 1149.2 240.02 1152.5C240.62 1155.8 241.53 1159.85 242.04 1161.5C242.54 1163.15 243.37 1167.2 243.89 1170.5C244.4 1173.8 245.71 1179.88 246.8 1184C247.89 1188.13 249.06 1192.17 249.39 1193C249.72 1193.83 250.41 1197.2 250.92 1200.5C251.43 1203.8 252.3 1208.08 252.85 1210C253.41 1211.92 254.84 1217.1 256.04 1221.5C257.24 1225.9 258.67 1232.2 259.23 1235.5C259.78 1238.8 261.8 1245.33 263.7 1250C265.61 1254.67 269.38 1263.11 272.08 1268.75C274.79 1274.39 279.21 1283.61 281.92 1289.25C284.62 1294.89 288.4 1302.88 290.31 1307C292.23 1311.13 296.32 1317.88 299.41 1322C302.49 1326.13 306.25 1331.43 307.76 1333.78C309.27 1336.14 312.18 1340.42 314.24 1343.28C316.3 1346.15 320.22 1351.88 322.96 1356C325.7 1360.13 329.28 1365.3 330.92 1367.5C332.57 1369.7 335.49 1373.53 337.42 1376C339.35 1378.47 342.84 1383.65 345.18 1387.5C347.52 1391.35 350.64 1395.85 352.12 1397.5C353.6 1399.15 355.86 1402.38 357.15 1404.67C358.44 1406.97 364.94 1413.94 371.6 1420.17C378.25 1426.4 387.02 1434.46 391.1 1438.09C395.17 1441.71 401.65 1447.29 405.5 1450.5C409.35 1453.7 414.75 1458.45 417.5 1461.05C420.25 1463.66 429.7 1470.56 438.5 1476.4C447.3 1482.23 456.07 1488.12 458 1489.49C459.93 1490.86 463.98 1493.62 467 1495.64C470.02 1497.65 474.3 1500.57 476.5 1502.13C478.7 1503.69 482.98 1506.61 486 1508.63C489.02 1510.65 493.3 1513.58 495.5 1515.15C497.7 1516.71 502.2 1519.82 505.5 1522.05C508.8 1524.28 512.63 1526.33 514 1526.62C515.38 1526.9 522.8 1529.75 530.5 1532.95C538.2 1536.14 546.3 1539.32 548.5 1540C550.7 1540.68 559.92 1544.34 569 1548.12C578.08 1551.91 585.95 1555 586.5 1555C587.05 1555.01 590.42 1556.06 594 1557.35C597.58 1558.64 602.3 1560.28 604.5 1560.99C606.7 1561.7 609.14 1562.56 609.92 1562.89C611.13 1563.41 611.23 1555.12 610.62 1504C610.23 1471.28 609.77 1440.67 609.59 1436C609.42 1431.33 608.77 1419.17 608.14 1409C607.51 1398.83 606.28 1380.15 605.41 1367.5C604.54 1354.85 602.97 1339.55 601.92 1333.5C600.88 1327.45 599.52 1320.7 598.92 1318.5C598.31 1316.3 597.21 1311.58 596.47 1308C595.73 1304.42 594.43 1297.9 593.57 1293.5C592.72 1289.1 591.53 1283.7 590.92 1281.5C590.32 1279.3 589.39 1275.03 588.86 1272C588.32 1268.97 587.47 1265.15 586.96 1263.5C586.46 1261.85 585.62 1257.8 585.1 1254.5C584.59 1251.2 583.21 1244.45 582.05 1239.5C580.89 1234.55 579.47 1228.25 578.9 1225.5C578.32 1222.75 577.44 1219.38 576.93 1218C576.42 1216.63 575.59 1212.8 575.09 1209.5C574.59 1206.2 573.29 1200.13 572.21 1196C571.12 1191.88 568.11 1183.55 565.51 1177.5C562.91 1171.45 558.06 1161.55 554.73 1155.5C551.4 1149.45 546.89 1141.13 544.69 1137C542.5 1132.88 538.6 1125.45 536.03 1120.5C533.46 1115.55 528.57 1106.44 525.18 1100.25C521.78 1094.06 519.01 1088.66 519.01 1088.25C519.02 1087.84 517.38 1084.8 515.35 1081.5C513.33 1078.2 509.58 1071.45 507.02 1066.5C504.45 1061.55 499.8 1052.89 496.68 1047.25C493.56 1041.61 488.45 1032.39 485.34 1026.75C482.23 1021.11 478.03 1013.35 476 1009.5C473.98 1005.65 470.85 1000.02 469.04 997C467.23 993.98 464.77 989.25 463.57 986.5C462.36 983.75 459.86 979.25 458.01 976.5C456.15 973.75 454.15 970.38 453.56 969C452.96 967.63 451.23 964.7 449.71 962.5C448.18 960.3 444.94 955.58 442.5 952C440.06 948.42 436.82 943.57 435.28 941.21C433.75 938.86 424.18 924.58 414 909.48C403.82 894.39 394.5 880.57 393.27 878.77C392.05 876.97 388.81 872.13 386.07 868C383.34 863.88 380.06 859.2 378.8 857.61C377.53 856.03 375.15 852.61 373.5 850.01C371.85 847.42 369.24 843.55 367.69 841.4C366.15 839.26 363.22 834.97 361.19 831.87C359.16 828.78 356.25 824.5 354.72 822.37C353.19 820.24 349.94 815.58 347.51 812C345.08 808.42 340.85 802.13 338.11 798C335.37 793.88 332.04 789.15 330.71 787.5C329.38 785.85 327.22 782.82 325.9 780.76C324.58 778.71 323.26 777.02 322.98 777.01C322.69 777.01 318.44 783.19 313.53 790.75C308.63 798.31 302.37 808.33 299.62 813ZM670.57 1141.25C668.52 1152.94 664.67 1174.88 662.02 1190C659.37 1205.13 653.57 1238.2 649.14 1263.5C644.71 1288.8 640.39 1313.1 639.54 1317.5C638.69 1321.9 638 1326.29 638 1327.25C638 1328.9 641.29 1329 693.25 1328.98L748.5 1328.96C747.46 1334.03 745.33 1345.96 743.08 1358.75C740.84 1371.54 739 1382.45 739 1383C739 1383.64 749.67 1384 769 1384L799 1384C800.62 1375.86 802.87 1363.15 805.04 1350.5C807.22 1337.85 809 1327.16 809 1326.75C809 1326.34 820.36 1325.82 834.25 1325.59C852.06 1325.3 861.41 1324.74 866 1323.66C869.58 1322.83 875.42 1321.09 879 1319.81C882.58 1318.52 888.88 1315.49 893 1313.06C897.13 1310.64 903.46 1305.69 907.09 1302.08C910.71 1298.46 915.32 1293.03 917.32 1290C919.33 1286.97 922.57 1280.45 924.51 1275.5C926.46 1270.55 928.77 1262.9 929.66 1258.5C930.84 1252.63 931.13 1247.16 930.77 1238C930.38 1227.96 929.75 1223.93 927.59 1217.5C926.1 1213.1 923.45 1207.09 921.69 1204.15C919.94 1201.21 915.8 1196.24 912.5 1193.12C909.02 1189.82 903.14 1185.73 898.5 1183.37C894.1 1181.13 886.9 1178.45 882.5 1177.4C875.2 1175.67 870.17 1175.5 825.04 1175.5L775.58 1175.5C772.87 1189.45 768.89 1211.95 764.99 1234.5C761.09 1257.05 757.69 1276.29 757.45 1277.25C757.04 1278.86 754.97 1279 732 1279C718.25 1279 707.01 1278.66 707.01 1278.25C707.02 1277.84 709.05 1266.03 711.53 1252C714.02 1237.97 718.04 1215.25 720.48 1201.5C722.92 1187.75 726.96 1164.8 729.47 1150.5C731.98 1136.2 734.25 1123.49 734.52 1122.25L735 1120L674.3 1120M778.5 752.7C784 752.96 792.1 753.85 796.5 754.69C800.9 755.52 807.88 757.34 812 758.73C816.13 760.12 823.33 763.18 828 765.54C832.67 767.89 839.88 772.19 844 775.1C848.13 778.01 854.9 783.79 859.05 787.95C863.21 792.1 868.99 798.88 871.9 803C874.81 807.13 879.11 814.33 881.46 819C883.82 823.67 886.94 831.1 888.4 835.5C889.86 839.9 891.79 847.33 892.68 852C893.66 857.13 894.31 865.65 894.31 873.5C894.31 881.35 893.66 889.87 892.68 895C891.79 899.67 889.86 907.1 888.4 911.5C886.94 915.9 883.82 923.33 881.46 928C879.11 932.67 874.81 939.88 871.9 944C868.99 948.13 863.21 954.9 859.05 959.05C854.9 963.21 848.13 968.99 844 971.9C839.88 974.81 832.67 979.11 828 981.46C823.33 983.82 815.9 986.94 811.5 988.4C807.1 989.86 799.67 991.79 795 992.68C789.87 993.66 781.35 994.31 773.5 994.31C765.65 994.31 757.13 993.66 752 992.68C747.33 991.79 739.9 989.86 735.5 988.4C731.1 986.94 723.67 983.82 719 981.46C714.33 979.11 707.13 974.81 703 971.9C698.88 968.99 692.1 963.21 687.95 959.05C683.79 954.9 678.01 948.13 675.1 944C672.19 939.88 667.89 932.67 665.54 928C663.18 923.33 660.06 915.9 658.6 911.5C657.14 907.1 655.21 899.67 654.32 895C653.34 889.87 652.69 881.35 652.69 873.5C652.69 865.65 653.34 857.13 654.32 852C655.21 847.33 657.14 839.9 658.6 835.5C660.06 831.1 663.18 823.67 665.54 819C667.89 814.33 672.19 807.13 675.1 803C678.01 798.88 683.79 792.1 687.95 787.95C692.1 783.79 698.88 778.01 703 775.1C707.13 772.19 714.33 767.89 719 765.54C723.67 763.18 731.1 760.06 735.5 758.6C739.9 757.14 747.12 755.32 751.54 754.57C755.97 753.82 761.59 752.98 764.04 752.72C766.49 752.46 773 752.45 778.5 752.7ZM840.85 1218.24C848.48 1218.56 853.79 1219.29 856.25 1220.37C858.31 1221.26 861.46 1223.28 863.25 1224.84C865.04 1226.4 867.24 1229.44 868.15 1231.59C869.05 1233.74 870.12 1237.53 870.51 1240C870.98 1242.93 870.67 1247.11 869.63 1252C868.61 1256.78 866.84 1261.29 864.76 1264.44C862.97 1267.16 859.48 1270.84 857 1272.63C854.52 1274.42 850.02 1276.57 847 1277.43C843.46 1278.43 837.32 1278.99 829.75 1278.99C823.29 1279 817.9 1278.71 817.78 1278.36C817.65 1278.01 818.96 1270.47 820.69 1261.61C822.42 1252.75 824.8 1239.88 825.99 1233C827.18 1226.13 828.39 1219.88 828.68 1219.13C829.1 1218.03 831.56 1217.85 840.85 1218.24Z" />
</svg>