<svg xmlns="http://www.w3.org/2000/svg" viewBox="0 0 100 100" width="100" height="100">
	<style>
		tspan { white-space:pre }
		.shp0 { fill: #ffffff } 
	</style>
	<path id="Path 0" fill-rule="evenodd" class="shp0" d="M52 0.25C61.23 0.44 62.72 0.59 67 1.83C69.61 2.59 73.21 3.96 75 4.89C76.79 5.81 79.71 7.62 81.5 8.91C83.29 10.19 86.34 12.95 88.29 15.03C90.23 17.11 92.8 20.32 94 22.16C95.21 24.01 96.71 26.85 97.34 28.48C97.98 30.11 98.86 33.24 99.31 35.44C99.93 38.5 100.06 41.3 99.89 47.42C99.7 53.83 99.39 56.49 98.31 60.82C97.39 64.57 95.94 68.37 93.61 73.17C91.06 78.44 89.4 81.1 86.71 84.25C84.76 86.53 81.95 89.47 80.46 90.78C78.97 92.09 75.95 94.09 73.75 95.22C71.55 96.35 68.06 97.83 66 98.51C62.5 99.66 61.5 99.74 39.25 99.74L32.5 97.14C27.52 95.23 24.64 93.75 21.5 91.5C19.16 89.83 16.01 87.32 14.5 85.92C12.99 84.52 10.31 81.26 8.54 78.67C6.78 76.09 4.61 72.35 3.72 70.36C2.82 68.38 1.59 64.32 0.98 61.34C0.01 56.64 -0.1 54.84 0.1 47.68C0.32 39.61 0.37 39.3 2.42 33.25C3.63 29.67 5.51 25.43 6.87 23.2C8.16 21.07 11.03 17.39 13.24 15.02C15.44 12.65 19.16 9.39 21.5 7.77C23.84 6.16 27.66 4.07 30 3.13C32.34 2.2 35.94 1.12 38 0.74C40.62 0.26 44.84 0.11 52 0.25ZM38.75 8.2C37.1 8.52 34.29 9.24 32.5 9.79C30.71 10.35 27.9 11.72 26.25 12.84C24.6 13.97 22.46 15.56 21.5 16.39L19.75 17.88C22.56 21.8 25.01 25.49 27.02 28.61C29.02 31.73 32.06 36.13 33.76 38.4C35.46 40.67 38.18 43.81 39.8 45.37C41.87 47.36 43.5 48.44 45.25 48.98C46.63 49.4 49.21 49.73 51 49.72C53.56 49.7 54.73 49.41 56.5 48.36C57.74 47.63 60.1 45.55 61.75 43.74C63.4 41.93 66.79 37.32 69.29 33.5C71.79 29.68 74.99 24.34 76.4 21.65C77.81 18.96 78.99 16.52 79.01 16.24C79.03 15.95 77.63 14.75 75.9 13.56C74.17 12.37 71.91 11.03 70.88 10.59C69.84 10.15 66.92 9.23 64.38 8.54C61.55 7.78 57.71 7.19 54.5 7.03C51.61 6.89 47.56 6.97 45.5 7.19C43.44 7.42 40.4 7.87 38.75 8.2ZM74.8 44.82C72.62 48.66 69.87 53.89 68.68 56.44C67.1 59.83 66.16 62.88 65.18 67.78C64.12 73.09 63.81 76.28 63.67 83.12C63.54 89.77 63.64 91.75 64.13 91.76C64.47 91.77 67 90.65 69.75 89.27C74.08 87.11 75.34 86.16 79.15 82.18C82.19 79.01 84.3 76.21 85.95 73.2C87.27 70.79 88.85 67.65 89.45 66.24C90.06 64.82 91.15 61.34 91.88 58.51C93.04 53.99 93.21 52.36 93.22 45.36C93.22 37.97 93.12 37.07 91.86 33.38C91.11 31.18 89.75 28.11 88.83 26.55C87.91 24.99 86.95 23.71 86.7 23.71C86.44 23.71 84.55 26.89 82.49 30.77C80.43 34.65 76.97 40.97 74.8 44.82ZM8.45 36.6C7.11 40.72 6.82 42.51 6.6 47.94C6.39 53.42 6.52 55.15 7.48 59.54C8.11 62.37 9.3 66.08 10.12 67.78C10.95 69.48 12.8 72.62 14.24 74.74C15.68 76.87 17.96 79.62 19.31 80.86C20.65 82.1 23.38 84.24 25.38 85.63C27.37 87.01 30.69 88.84 32.75 89.69C34.81 90.54 36.61 91.24 36.75 91.24C36.89 91.24 36.87 87.58 36.7 83.12C36.49 77.33 36.01 72.92 35.02 67.78C33.99 62.44 33.14 59.57 31.75 56.7C30.72 54.57 28.52 50.28 26.87 47.16C25.21 44.05 21.58 38.06 18.8 33.87C16.02 29.67 13.58 26.25 13.38 26.26C13.18 26.28 12.35 27.51 11.53 28.99C10.7 30.48 9.32 33.9 8.45 36.6ZM50.25 23.19C51.85 23.19 53.56 23.61 55 24.35C56.23 24.99 57.76 26.33 58.39 27.32C59.03 28.31 59.76 29.99 60.02 31.06C60.29 32.12 60.36 33.86 60.19 34.92C60.03 35.99 59.38 37.78 58.77 38.92C57.97 40.38 56.87 41.39 54.95 42.4C53.33 43.26 51.45 43.83 50.25 43.83C49.05 43.83 47.17 43.26 45.55 42.4C43.65 41.4 42.51 40.37 41.71 38.92C41.09 37.78 40.43 36.04 40.24 35.05C40.06 34.06 40.15 32.32 40.43 31.19C40.72 30.05 41.47 28.31 42.11 27.32C42.74 26.33 44.27 24.99 45.5 24.35C46.94 23.61 48.65 23.19 50.25 23.19Z" />
</svg>